<svg width="1200" height="800" viewBox="0 0 1200 800" fill="none" xmlns="http://www.w3.org/2000/svg">
<mask id="mask0_201_236" style="mask-type:luminance" maskUnits="userSpaceOnUse" x="0" y="0" width="1200" height="800">
<path d="M1200 0H0V800H1200V0Z" fill="white"/>
</mask>
<g mask="url(#mask0_201_236)">
<path d="M-221.4 -31.7C-171.2 -83.6 -80.1 -86.4 -26.4 -37.7C29.7 13.3 39 101.3 91.4 156.2C141.6 208.9 220.9 219.9 292.6 214.1C364.3 208.3 435.1 188.7 507 192.3C578.9 195.9 656.3 230 683.3 298C706.7 356.8 686.7 422.6 675.2 484.8C663.7 547 666.1 622.6 717 659.4C777 702.7 852.8 665.4 918.1 661.8C1028.9 655.7 1140.2 707 1201.5 800.7C1264 896.3 1268.8 1027.6 1213.3 1127" stroke="#2C293A" stroke-miterlimit="10"/>
<path d="M-206.7 -41.3C-155.8 -90.9 -65.7001 -92.7 -12.0001 -44.5C31.7999 -5.30001 48.1999 55.9 77.5999 107.1C85.9999 121.7 95.3999 135.5 106.8 147.7C156.1 200.8 232.3 214.3 300.6 211.7C347.3 209.8 393.3 201.9 439.2 198.9C460.5 197.5 481.7 197.2 503.3 199.2C530.6 201.8 559 209.1 585.5 221.2C624.9 239.2 659.5 266.9 676.7 306.1C681.1 316.2 684.2 326.6 686.3 337.1C695.9 385.6 683.1 438.2 674.9 489.1C673.6 497.2 672.5 505.5 671.7 513.9C666.3 570.2 672.3 630.8 714.1 663.5C721.3 669.1 728.8 673.5 736.4 676.9C765.8 689.7 798.3 687.7 831.3 683C857.7 679.2 884.7 673.4 910.1 672.1C916.3 671.8 922.5 671.7 928.7 671.7C962.3 671.8 995.7 676.7 1027.5 686.4C1094.3 706.8 1154.2 748.8 1193.6 808.2C1205.7 826.4 1215.7 845.9 1223.5 866.3C1256.4 952.1 1250.9 1053.2 1206 1133.1" stroke="#2C293A" stroke-miterlimit="10"/>
<path d="M-192 -50.9C-140.4 -98.2 -51.4 -98.9 2.5 -51.3C46.5 -12.5 64 47.6 93.4 98.7C101.8 113.2 111.1 127 122.3 139.3C170.8 192.9 243.9 208.8 308.8 209.3C353.2 209.6 396.5 204.2 439.5 203.1C459.5 202.6 479.4 203.2 499.7 206.1C525.4 209.8 552.4 218.2 578.3 230.7C616.9 249.5 651.8 276.3 670 314.2C674.7 324 678.1 333.9 680.5 344.1C691.8 391 681.5 442.6 674.6 493.3C673.5 501.3 672.5 509.6 671.9 518C667.3 574.2 671.8 634.1 711.3 667.6C718.1 673.3 725.1 677.9 732.4 681.5C760.3 695.1 791.6 694.7 823.9 691.3C849.8 688.6 876.7 683.4 902.1 682.3C908.3 682 914.5 681.9 920.6 682C954.1 682.1 987.4 686.5 1019.2 695.8C1086 715.3 1146.1 756.7 1185.8 815.6C1198 833.7 1208.1 853.1 1216 873.4C1249.3 958.8 1243.9 1059.7 1198.8 1139.3" stroke="#2C293A" stroke-miterlimit="10"/>
<path d="M-177.3 -60.5C-124.9 -105.4 -37.1 -105.1 17 -58.2C61.1 -19.9 79.8 39.3 109.2 90.1C117.6 104.6 126.8 118.4 137.8 130.8C185.4 184.8 255.5 203.2 317 206.9C359 209.3 399.8 206.4 439.9 207.4C458.6 207.8 477.1 209.3 496.2 213.1C520.4 217.9 546 227.3 571.3 240.4C609.1 260 644.4 286 663.6 322.4C668.6 331.8 672.3 341.4 675.1 351.1C688.1 396.4 680.3 447 674.6 497.5C673.7 505.5 672.9 513.7 672.3 522.1C668.6 578.2 671.5 637.4 708.6 671.7C715 677.6 721.6 682.3 728.5 686.1C754.9 700.6 785 701.7 816.7 699.7C842.1 698.1 869 693.5 894.3 692.6C900.5 692.4 906.7 692.3 912.8 692.3C946.2 692.5 979.4 696.3 1011.2 705.2C1077.9 723.8 1138.2 764.7 1178.2 823C1190.5 840.9 1200.7 860.2 1208.6 880.4C1242.2 965.4 1236.9 1066.1 1191.7 1145.4" stroke="#2C293A" stroke-miterlimit="10"/>
<path d="M-162.6 -70.2C-109.5 -112.8 -22.7 -111.5 31.5 -65.1C75.8 -27.2 95.6 30.9 125 81.6C133.4 96 142.6 109.8 153.3 122.3C200 176.7 267.1 197.6 325.2 204.4C364.9 208.9 403 208.6 440.2 211.5C457.6 212.9 474.8 215.2 492.6 219.9C515.2 225.9 539.4 236.2 564.2 249.8C601.2 270.2 636.8 295.4 657.1 330.3C662.4 339.3 666.4 348.6 669.5 357.9C684.2 401.6 678.9 451.2 674.4 501.5C673.7 509.4 673.1 517.6 672.6 526C669.8 582 671 640.5 705.8 675.5C711.7 681.5 718 686.4 724.5 690.4C749.4 705.7 778.3 708.4 809.3 707.8C834.1 707.2 861 703.3 886.3 702.6C892.5 702.4 898.6 702.4 904.7 702.4C938 702.6 971.1 706 1002.9 714.4C1069.6 732.1 1130.1 772.4 1170.3 830.2C1182.7 848 1192.9 867.1 1201 887.2C1235 971.7 1229.7 1072.4 1184.4 1151.3" stroke="#2C293A" stroke-miterlimit="10"/>
<path d="M-147.8 -79.8C-94 -120.1 -8.30006 -117.7 45.9999 -71.9C90.3999 -34.5 111.3 22.7 140.9 73.1C149.3 87.5 158.4 101.3 168.9 113.8C214.7 168.7 278.8 192.1 333.5 202C370.9 208.7 406.3 210.8 440.7 215.8C456.7 218.1 472.6 221.4 489.2 226.9C510.2 234 533.1 245.3 557.3 259.5C593.4 280.8 629.4 305.1 650.7 338.6C656.2 347.3 660.6 356.1 664.1 365.1C680.6 407.3 677.6 455.9 674.4 505.9C673.9 513.8 673.4 521.9 673.1 530.3C671.2 586.3 670.8 644 703.2 679.8C708.7 685.9 714.6 691 720.7 695.2C744.1 711.3 771.8 715.6 802.2 716.3C826.5 716.8 853.4 713.5 878.7 713C884.9 712.9 891 712.8 897.1 712.9C930.3 713.1 963.3 716 995 724C1061.7 740.8 1122.4 780.5 1162.9 837.8C1175.4 855.4 1185.7 874.4 1193.9 894.4C1228.2 978.5 1223 1079 1177.6 1157.6" stroke="#2C293A" stroke-miterlimit="10"/>
<path d="M-133.1 -89.4C-78.6 -127.3 6.00002 -124 60.5 -78.8C105.1 -41.8 127.1 14.3 156.7 64.5C165.1 78.8 174.1 92.6 184.5 105.2C229.4 160.5 290.5 186.4 341.8 199.4C376.8 208.3 409.5 212.9 441.1 219.8C455.8 223 470.3 227.2 485.6 233.6C505.1 241.8 526.5 254.1 550.2 268.8C585.5 290.9 621.9 314.4 644.2 346.4C650 354.7 654.7 363.2 658.5 371.8C676.7 412.4 676.3 460 674.3 509.9C674 517.8 673.7 525.9 673.5 534.1C672.5 590 670.5 647 700.5 683.6C705.6 689.8 711 695.1 716.8 699.6C738.7 716.5 765.2 722.5 794.9 724.5C818.6 726.1 845.5 723.4 870.8 723.1C876.9 723 883.1 723 889.1 723C922.2 723.3 955.1 725.6 986.8 733.2C1053.4 749.1 1114.4 788.2 1155.1 845C1167.6 862.5 1178.1 881.3 1186.4 901.2C1221.1 984.8 1215.9 1085.3 1170.4 1163.5" stroke="#2C293A" stroke-miterlimit="10"/>
<path d="M-118.4 -99C-63.1 -134.6 20.3 -130.2 75 -85.6C119.7 -49.1 142.9 6.10001 172.5 56.1C181 70.4 189.9 84.1 200 96.8C244.1 152.6 302 180.9 349.9 197.1C382.6 208.1 412.6 215.2 441.3 224.2C454.7 228.4 467.9 233.4 481.9 240.7C499.8 250.1 519.9 263.3 542.9 278.6C577.4 301.5 614.1 324.1 637.5 354.8C643.6 362.8 648.5 370.9 652.8 379.1C672.8 418.1 674.8 464.7 674 514.4C673.9 522.2 673.7 530.3 673.7 538.5C673.6 594.3 670 650.6 697.6 688C702.3 694.3 707.3 699.8 712.8 704.5C733.2 722.2 758.6 729.8 787.5 733.1C810.7 735.8 837.6 733.8 862.8 733.6C868.9 733.6 875 733.6 881.1 733.6C914.1 733.9 946.9 735.8 978.6 742.9C1045.2 757.8 1106.3 796.5 1147.3 852.7C1159.9 870 1170.5 888.8 1178.8 908.5C1213.9 991.7 1208.7 1092 1163.1 1169.8" stroke="#2C293A" stroke-miterlimit="10"/>
<path d="M-103.7 -108.6C-47.7001 -141.9 34.6999 -136.5 89.3999 -92.4C134.3 -56.3 158.5 -2.19999 188.2 47.6C196.7 61.8 205.5 75.6 215.4 88.4C258.6 144.6 313.5 175.4 358 194.7C388.3 207.9 415.6 217.5 441.6 228.4C453.6 233.5 465.5 239.4 478.3 247.6C494.6 258.1 513.3 272.4 535.8 288.1C569.5 311.8 606.5 333.6 630.9 362.8C637.2 370.4 642.5 378.1 647.1 386C668.9 423.5 673.3 469 673.7 518.5C673.8 526.3 673.8 534.3 673.9 542.5C674.6 598.2 669.5 653.8 694.7 691.9C699 698.3 703.6 704 708.7 708.9C727.7 727.4 751.8 736.6 780.1 741.3C802.7 745 829.6 743.7 854.9 743.7C861 743.7 867.1 743.7 873.1 743.8C906 744.1 938.7 745.5 970.4 752.2C1036.9 766.2 1098.3 804.3 1139.6 860C1152.3 877.2 1163 895.8 1171.4 915.5C1206.8 998.3 1201.7 1098.4 1156 1175.9" stroke="#2C293A" stroke-miterlimit="10"/>
<path d="M-89 -118.3C-32.3 -149.2 49 -142.8 103.9 -99.4C149 -63.8 174.3 -10.6 204 39C212.5 53.2 221.2 66.9 230.9 79.8C273.2 136.5 325.1 169.7 366.2 192.2C394.2 207.5 418.7 219.5 441.9 232.6C452.5 238.6 463.2 245.4 474.7 254.5C489.5 266.2 506.8 281.4 528.7 297.7C561.5 322.3 599 343.2 624.4 371C631 378.2 636.6 385.6 641.6 393.1C665.2 429 671.9 473.5 673.6 522.8C673.9 530.5 674 538.5 674.3 546.7C675.8 602.4 669.2 657.1 692 696.1C695.8 702.6 700.1 708.4 704.8 713.6C722.3 732.9 745.2 743.7 772.8 749.7C794.9 754.5 821.7 753.8 847 754C853.1 754.1 859.2 754.1 865.2 754.2C898 754.5 930.6 755.5 962.3 761.7C1028.8 774.8 1090.4 812.3 1131.9 867.5C1144.7 884.5 1155.5 903 1164 922.6C1199.8 1004.9 1194.7 1105 1148.8 1182.1" stroke="#2C293A" stroke-miterlimit="10"/>
<path d="M-74.3 -127.9C-16.8 -156.5 63.4 -149.1 118.4 -106.2C163.6 -71.1 190.1 -18.9 219.8 30.5C228.3 44.6 237 58.4 246.4 71.3C287.8 128.4 336.6 164.1 374.4 189.7C400.1 207.1 421.7 221.6 442.3 236.7C451.6 243.5 460.9 251.4 471.2 261.3C484.4 274.1 500.3 290.3 521.7 307.1C553.7 332.5 591.5 352.6 618 378.9C624.9 385.8 630.8 392.8 636.1 399.9C661.5 434.2 670.6 477.7 673.6 526.8C674.1 534.5 674.4 542.4 674.8 550.6C677.2 606.2 669 660.2 689.5 700C692.9 706.7 696.8 712.6 701.1 718C717.1 738.1 738.8 750.5 765.7 757.9C787.3 763.8 814.1 763.7 839.3 764.1C845.4 764.2 851.5 764.3 857.4 764.3C890.1 764.7 922.6 765.1 954.2 770.9C1020.6 783.1 1082.4 820 1124.2 874.7C1137.1 891.6 1148 909.9 1156.6 929.4C1192.7 1011.3 1187.7 1111.2 1141.7 1188" stroke="#2C293A" stroke-miterlimit="10"/>
<path d="M-59.5 -137.5C-1.3 -163.8 77.7 -155.3 132.9 -113C178.3 -78.3 205.9 -27.1 235.6 22.1C244.1 36.2 252.7 49.9 261.9 62.9C302.4 120.4 348.2 158.5 382.6 187.4C405.9 207 424.8 223.8 442.6 241C450.5 248.7 458.6 257.5 467.6 268.3C479.3 282.3 493.7 299.4 514.5 316.8C545.7 343 583.9 362.2 611.4 387.2C618.6 393.7 624.9 400.3 630.5 407.1C657.7 439.8 669.2 482.4 673.4 531.2C674.1 538.8 674.6 546.7 675 554.9C678.3 610.4 668.5 663.6 686.6 704.2C689.6 711 693 717.1 697 722.7C711.5 743.6 732 757.6 758.3 766.4C779.3 773.4 806.1 773.9 831.4 774.5C837.5 774.6 843.5 774.7 849.5 774.8C882.1 775.2 914.5 775.1 946.1 780.5C1012.5 791.8 1074.5 828.2 1116.5 882.3C1129.5 899 1140.5 917.2 1149.1 936.6C1185.6 1018 1180.6 1117.8 1134.5 1194.3" stroke="#2C293A" stroke-miterlimit="10"/>
<path d="M-44.8 -147.1C14.1 -171 92.1 -161.6 147.4 -119.9C192.9 -85.7 221.6 -35.5 251.4 13.5C259.9 27.5 268.4 41.3 277.5 54.3C317.2 112.3 359.9 152.8 390.9 184.8C411.9 206.5 428 225.6 443 245.1C449.5 253.6 456.3 263.4 464.1 275.1C474.2 290.2 487.3 308.3 507.5 326.2C537.9 353.2 576.4 371.6 604.9 395.1C612.4 401.2 619 407.5 624.9 413.9C654 445.1 667.8 486.6 673.2 535.2C674 542.8 674.7 550.7 675.3 558.8C679.5 614.2 668.1 666.7 683.8 708.1C686.4 715 689.4 721.3 693 727.2C706.1 748.9 725.3 764.5 750.9 774.6C771.4 782.7 798.2 783.8 823.4 784.6C829.5 784.8 835.5 784.9 841.4 785C873.9 785.4 906.2 784.9 937.8 789.8C1004.2 800.2 1066.4 836 1108.7 889.6C1121.8 906.2 1132.9 924.3 1141.6 943.5C1178.5 1024.5 1173.5 1124.2 1127.3 1200.3" stroke="#2C293A" stroke-miterlimit="10"/>
<path d="M-30.1 -156.8C29.5 -178.4 106.4 -167.9 161.9 -126.8C207.6 -93 237.4 -43.8 267.2 4.89999C275.7 18.9 284.2 32.6 293 45.8C331.8 104.2 371.5 147.2 399 182.4C417.6 206.2 431.1 227.5 443.3 249.3C448.5 258.6 454 269.5 460.5 282C469 298.3 480.7 317.4 500.4 335.8C529.9 363.6 568.9 381.2 598.4 403.3C606.1 409.1 613.1 415 619.4 421C650.3 450.6 666.4 491.1 673.1 539.6C674.1 547.1 675 555 675.7 563.1C680.8 618.5 667.9 670.1 681.1 712.4C683.3 719.4 685.9 725.9 689.1 732C700.7 754.4 718.7 771.7 743.7 783.2C763.6 792.3 790.4 794.2 815.6 795.1C821.7 795.3 827.7 795.5 833.5 795.5C865.9 796 898.1 794.9 929.7 799.4C996 808.9 1058.5 844.1 1101 897.2C1114.2 913.6 1125.3 931.6 1134.2 950.7C1171.4 1031.3 1166.5 1130.8 1120.2 1206.6" stroke="#2C293A" stroke-miterlimit="10"/>
<path d="M-15.4 -166.4C45 -185.7 120.7 -174.2 176.3 -133.6C222.1 -100.3 253.1 -52.1 282.9 -3.5C291.5 10.4 299.8 24.1 308.4 37.4C346.3 96.3 383 141.6 407.1 180C423.4 205.9 434.2 229.5 443.5 253.6C447.4 263.7 451.5 275.6 456.8 289C463.8 306.5 474.1 326.5 493.2 345.4C521.9 374.1 561.2 390.8 591.8 411.4C599.8 416.8 607.1 422.3 613.7 428C646.5 455.9 664.9 495.5 672.9 543.8C674.1 551.3 675.1 559.1 676 567.1C682 622.4 667.5 673.3 678.3 716.3C680.1 723.4 682.3 730.1 685.1 736.4C695.2 759.6 712 778.5 736.3 791.3C755.7 801.5 782.5 804 807.7 805.1C813.8 805.4 819.8 805.5 825.6 805.6C857.9 806.1 890 804.6 921.6 808.6C987.9 817.2 1050.5 851.8 1093.3 904.4C1106.6 920.7 1117.8 938.5 1126.8 957.5C1164.4 1037.6 1159.5 1137.1 1113.1 1212.4" stroke="#2C293A" stroke-miterlimit="10"/>
<path d="M-0.700012 -176C60.4 -192.9 135.1 -180.4 190.8 -140.5C236.8 -107.6 268.8 -60.4 298.7 -12.1C307.3 1.79999 315.5 15.5 323.9 28.8C360.9 88.1 394.6 135.9 415.3 177.5C429.3 205.5 437.5 231.4 443.9 257.7C446.5 268.6 449.2 281.6 453.3 295.8C458.7 314.4 467.6 335.4 486.2 354.9C514.1 384.4 553.8 400.2 585.3 419.4C593.6 424.5 601.2 429.6 608.1 434.9C642.8 461.2 663.5 499.8 672.7 547.9C674.1 555.4 675.3 563.1 676.3 571.1C683.2 626.3 667.2 676.4 675.5 720.3C676.9 727.5 678.7 734.3 681.1 740.9C689.8 764.9 705.4 785.4 728.9 799.6C747.7 810.9 774.5 814 799.7 815.3C805.7 815.6 811.7 815.8 817.5 815.9C849.7 816.4 881.7 814.4 913.2 818C979.4 825.7 1042.3 859.8 1085.4 911.8C1098.8 927.9 1110.1 945.6 1119.1 964.6C1157 1044.3 1152.2 1143.6 1105.7 1218.6" stroke="#2C293A" stroke-miterlimit="10"/>
<path d="M14 -185.6C75.8 -200.2 149.4 -186.6 205.3 -147.3C251.4 -114.9 284.6 -68.7 314.5 -20.5C323.1 -6.7 331.3 6.99999 339.4 20.4C375.6 80.2 406.2 130.3 423.5 175.1C435.2 205.2 440.8 233.3 444.2 262C445.6 273.7 446.8 287.7 449.7 302.8C453.5 322.6 461.1 344.5 479 364.5C506.1 394.8 546.2 409.8 578.7 427.6C587.3 432.3 595.2 437 602.5 442C639 466.7 662 504.3 672.5 552.2C674.1 559.6 675.4 567.3 676.6 575.3C684.4 630.4 666.8 679.7 672.7 724.5C673.7 731.8 675.1 738.8 677.1 745.6C684.4 770.3 698.7 792.5 721.6 808.1C739.9 820.5 766.7 824.2 791.8 825.7C797.8 826.1 803.8 826.3 809.6 826.3C841.7 826.8 873.6 824.3 905.1 827.5C971.3 834.2 1034.4 867.8 1077.7 919.3C1091.1 935.3 1102.6 952.8 1111.7 971.7C1150 1050.9 1145.2 1150.1 1098.6 1224.8" stroke="#2C293A" stroke-miterlimit="10"/>
<path d="M28.8 -195.3C91.3 -207.6 163.8 -193 219.8 -154.2C266.1 -122.2 300.4 -77 330.3 -29.1C338.9 -15.3 347 -1.60002 355 11.8C390.3 72 417.9 124.6 431.8 172.6C441.1 204.8 444.3 235.3 444.6 266.1C444.7 278.6 444.6 293.6 446.2 309.6C448.4 330.6 454.6 353.4 472 373.9C498.2 405 538.7 419.1 572.3 435.5C581.1 439.8 589.4 444.2 597 448.8C635.4 471.8 660.7 508.6 672.4 556.2C674.2 563.6 675.7 571.2 677 579.2C685.8 634.2 666.6 682.8 670 728.3C670.6 735.7 671.6 742.9 673.2 750C679 775.5 692.1 799.3 714.3 816.2C732.1 829.7 758.8 834 783.9 835.7C789.9 836.1 795.9 836.3 801.6 836.4C833.6 837 865.4 834 896.9 836.7C963 842.5 1026.4 875.5 1069.9 926.5C1083.4 942.3 1095 959.8 1104.2 978.5C1142.8 1057.3 1138.2 1156.4 1091.4 1230.7" stroke="#2C293A" stroke-miterlimit="10"/>
<path d="M43.5 -204.9C106.8 -214.8 178.1 -199.2 234.3 -161.1C280.7 -129.6 316.2 -85.4 346.1 -37.6C354.7 -23.9 362.8 -10.2 370.5 3.29999C404.9 63.9 429.5 119 440 170.1C447 204.5 447.7 237.3 445 270.2C443.9 283.5 442.3 299.6 442.7 316.4C443.3 338.5 448.2 362.3 465 383.4C490.4 415.4 531.3 428.6 565.8 443.6C574.9 447.6 583.5 451.5 591.5 455.8C631.8 477.1 659.3 513 672.4 560.4C674.4 567.7 676.1 575.4 677.4 583.3C687.1 638.3 666.4 686 667.3 732.4C667.5 739.9 668.1 747.3 669.3 754.6C673.7 780.9 685.5 806.3 707.1 824.6C724.3 839.1 751 844.2 776.2 846C782.2 846.4 788.2 846.7 793.9 846.8C825.8 847.4 857.5 843.9 889 846.3C955.1 851.2 1018.6 883.7 1062.5 934.1C1076.1 949.8 1087.8 967.1 1097.1 985.7C1136.1 1064.1 1131.5 1163 1084.6 1237" stroke="#2C293A" stroke-miterlimit="10"/>
<path d="M58.2 -214.5C122.2 -222.1 192.5 -205.5 248.8 -167.9C295.4 -136.8 331.9 -93.6 361.9 -46.1C370.5 -32.5 378.5 -18.7 386 -5.10001C419.5 56 441.1 113.4 448.1 167.8C452.8 204.3 451 239.5 445.2 274.6C442.9 288.8 439.8 305.8 439 323.5C438 346.8 441.5 371.6 457.8 393.1C482.4 425.9 523.6 438.3 559.2 451.8C568.6 455.4 577.6 459 585.8 462.8C628.1 482.5 657.8 517.5 672.2 564.7C674.4 572 676.2 579.6 677.7 587.5C688.3 642.4 666.1 689.4 664.6 736.6C664.4 744.2 664.5 751.8 665.4 759.3C668.4 786.4 678.9 813.5 699.8 833C716.5 848.6 743.2 854.3 768.3 856.3C774.3 856.8 780.2 857.1 785.9 857.2C817.7 857.8 849.3 853.8 880.7 855.8C946.7 859.8 1010.5 891.7 1054.6 941.6C1068.3 957.1 1080.1 974.3 1089.4 992.8C1128.8 1070.7 1124.2 1169.6 1077.2 1243.2" stroke="#2C293A" stroke-miterlimit="10"/>
<path d="M72.9 -224.1C137.6 -229.4 206.8 -211.7 263.2 -174.7C310 -144.1 347.6 -101.9 377.6 -54.6C386.2 -41 394.1 -27.3 401.4 -13.6C434 47.9 452.7 107.8 456.2 165.3C458.7 203.9 454.3 241.5 445.4 278.7C441.8 293.8 437.3 311.7 435.3 330.3C432.7 354.7 434.9 380.5 450.6 402.6C474.4 436.2 516 447.7 552.6 459.9C562.3 463.1 571.6 466.3 580.2 469.8C624.2 487.7 656.3 521.8 671.9 568.9C674.3 576.1 676.3 583.7 677.9 591.6C689.3 646.4 665.7 692.6 661.7 740.7C661.1 748.4 660.8 756.1 661.3 763.9C662.9 791.7 672.1 820.5 692.3 841.4C708.4 858.1 735.1 864.4 760.2 866.6C766.2 867.1 772.1 867.4 777.8 867.5C809.5 868.1 841 863.7 872.4 865.2C938.4 868.3 1002.4 899.6 1046.7 949C1060.5 964.4 1072.4 981.4 1081.8 999.8C1121.5 1077.3 1117 1176 1069.9 1249.3" stroke="#2C293A" stroke-miterlimit="10"/>
<path d="M87.6 -233.8C153 -236.8 221.1 -218.1 277.7 -181.7C324.6 -151.5 363.4 -110.3 393.5 -63.2C402.2 -49.7 410 -36 417 -22.2C448.8 39.8 464.4 102.1 464.5 162.8C464.6 203.5 457.8 243.5 445.9 282.9C441.1 298.8 435.1 317.7 431.9 337.2C427.7 362.8 428.5 389.5 443.6 412.1C466.6 446.5 508.6 457.1 546.1 467.9C556.1 470.7 565.7 473.6 574.6 476.7C620.5 492.9 654.9 526.2 671.7 573C674.3 580.2 676.5 587.7 678.2 595.6C690.5 650.3 665.4 695.8 658.9 744.6C657.9 752.4 657.2 760.3 657.3 768.3C657.4 796.9 665.4 827.3 685 849.5C700.6 867.3 727.3 874.2 752.4 876.6C758.4 877.2 764.3 877.5 769.9 877.6C801.5 878.3 832.9 873.3 864.3 874.4C930.3 876.6 994.5 907.3 1039 956.2C1052.9 971.4 1064.8 988.3 1074.4 1006.7C1114.5 1083.7 1110 1182.3 1062.8 1255.2" stroke="#2C293A" stroke-miterlimit="10"/>
<path d="M102.4 -243.4C168.5 -244 235.5 -224.3 292.2 -188.5C339.3 -158.8 379.2 -118.5 409.3 -71.7C418 -58.2 425.7 -44.5 432.5 -30.7C463.4 31.7 476 96.5 472.7 160.3C470.5 203.2 461.2 245.6 446.2 287C440.1 303.8 432.7 323.7 428.3 344C422.5 370.7 421.9 398.4 436.5 421.6C458.6 456.9 501 466.6 539.6 476C549.8 478.5 559.8 480.9 569.1 483.7C616.9 498.2 653.6 530.6 671.7 577.2C674.5 584.3 676.8 591.8 678.7 599.6C691.9 654.3 665.4 699 656.3 748.6C654.9 756.6 653.8 764.6 653.5 772.9C652.3 802.3 658.9 834.3 677.8 857.9C692.9 876.7 719.5 884.3 744.6 886.9C750.6 887.5 756.4 887.8 762.1 888C793.6 888.7 824.9 883.3 856.3 883.9C922.2 885.2 986.6 915.4 1031.5 963.7C1045.5 978.8 1057.5 995.6 1067.2 1013.8C1107.6 1090.4 1103.2 1188.9 1055.8 1261.4" stroke="#2C293A" stroke-miterlimit="10"/>
<path d="M117.1 -253C239.6 -249.9 358.6 -183.1 425.1 -80.2C499.4 34.7 497.3 168.7 446.6 291.3C429.7 332.2 404.9 389.5 429.5 431.3C456.5 476.9 517.7 479 563.6 490.8C620.8 505.5 663.9 545.2 679.1 603.8C695.5 667.1 655 716.2 649.6 777.5C646.9 807.7 652.4 841.3 670.6 866.3C688.6 891 725.1 897.7 754.2 898.4C785.6 899.1 816.8 893.2 848.2 893.4C934.6 893.9 1018.9 944.7 1059.7 1020.9C1100.5 1097.1 1096.1 1195.4 1048.6 1267.6" stroke="#2C293A" stroke-miterlimit="10"/>
<path d="M105.4 -247.7C168 -246.6 229.7 -230 284.6 -200.5C338.3 -171.6 385.6 -130 419.5 -79C445.3 -40.2 462.1 1.30003 470.6 44.2C478.6 84.6 479.2 125.9 473.3 166.5C468.9 197.1 460.9 227.2 450.1 256.9C445.6 269.3 440.6 281.5 435.2 293.7C428.5 308.7 420.7 326 414.9 343.9C405 374.5 400 407.7 415.6 434.5C432.5 463.4 463.5 475.2 495.4 482.5C514.2 486.8 533.4 489.6 550.5 493.5C566.1 497.1 580.6 502.5 594 509.4C624.1 525.2 647.8 549.4 662.1 581.3C664.8 587.4 667.2 593.8 669.3 600.4C680.1 636.4 672.1 668.5 662.3 701.2C655.4 724.4 647.6 748 645.5 773.6C645.4 774.5 645.4 775.4 645.3 776.4C643.4 806 648.6 838.7 666.4 863C678.5 879.6 698.9 888.3 719.9 892.3C730.7 894.4 741.7 895.2 751.9 895.2C763.4 895.3 774.9 894.4 786.3 893.3C806.6 891.2 826.9 888.2 847.2 887.6C871.2 886.8 895 889.6 917.9 895.8C960.1 907 999.6 929.5 1030.3 961.5C1043.5 975.3 1055 990.9 1064.4 1007.9C1068 1014.4 1071.3 1021.2 1074.2 1028C1105.9 1102.1 1098.1 1192.5 1053 1259.3" stroke="#2C293A" stroke-miterlimit="10"/>
<path d="M93.7 -242.3C157 -241.7 219.6 -226.3 275.5 -197.8C330.2 -169.8 378.9 -128.8 413.8 -77.7C440.3 -38.9 457.6 2.9 465.8 46.7C473.6 87.6 473.3 129.5 466.2 170.1C460.8 200.7 451.7 230.5 439.9 259.9C435 272.1 429.6 284.3 423.8 296.4C416.6 311.4 408.4 328.5 402.2 346.5C391.7 376.9 386.1 410.9 401.7 438C418.5 467 450 479.2 481.9 486.3C500.8 490.5 520.1 493 537.4 496.6C553.1 499.9 567.7 504.7 581.2 511.1C611.6 525.6 636 548.2 651.4 578.9C654.4 584.8 657 590.9 659.3 597.4C671.4 632.3 665.2 664.3 656.5 697.2C650.4 720.6 643.1 744.4 641.1 770.1C641 771 641 771.9 640.9 772.9C639.1 802.7 644.1 835.6 662 860.1C674.4 877.1 695.2 886 716.6 889.9C727.7 891.9 738.9 892.6 749.2 892.5C760.9 892.4 772.6 891.3 784.2 889.9C804.8 887.3 825.3 883.7 845.8 882.3C870 880.6 894 882.3 917.2 887.3C960 896.5 1000.9 916.9 1033 948.6C1046.8 962.3 1058.8 978 1068.5 995.2C1072.2 1001.8 1075.6 1008.7 1078.7 1015.6C1111.7 1091 1103.5 1183.7 1056.7 1251.4" stroke="#2C293A" stroke-miterlimit="10"/>
<path d="M82 -237C146 -236.9 209.4 -222.8 266.5 -195.2C322.1 -168.2 372.4 -127.6 408.2 -76.5C435.3 -37.7 453.1 4.50001 461.1 49.1C468.6 90.6 467.5 132.9 459.1 173.5C452.8 204.1 442.5 233.5 429.7 262.6C424.3 274.7 418.6 286.8 412.4 298.8C404.7 313.8 396 330.8 389.5 348.8C378.5 379.1 372.1 413.7 387.7 441.2C404.4 470.4 436.4 482.9 468.4 489.8C487.4 493.9 506.8 496.1 524.3 499.3C540 502.2 554.8 506.6 568.5 512.4C599.2 525.7 624.3 546.7 640.9 576.2C644.1 581.8 647 587.8 649.5 594.1C662.9 627.9 658.6 659.8 650.9 692.9C645.6 716.4 638.7 740.5 637 766.3C636.9 767.2 636.9 768.2 636.8 769.1C635.2 799 639.8 832.3 657.8 856.9C670.5 874.3 691.7 883.4 713.6 887.2C724.9 889.2 736.3 889.7 746.9 889.4C758.8 889.1 770.7 887.8 782.5 886C803.5 882.9 824.1 878.6 844.8 876.4C869.2 873.8 893.4 874.4 917 878.3C960.5 885.4 1002.7 903.9 1036.1 935.3C1050.5 948.9 1063 964.7 1073.1 982.1C1077 988.8 1080.5 995.7 1083.7 1002.8C1118 1079.4 1109.4 1174.6 1060.9 1243" stroke="#2C293A" stroke-miterlimit="10"/>
<path d="M70.3 -231.6C135 -232.1 199.2 -219.1 257.4 -192.5C314 -166.4 365.8 -126.4 402.6 -75.3C430.4 -36.6 448.7 6 456.4 51.5C463.6 93.5 461.7 136.4 452.1 176.9C444.8 207.5 433.3 236.6 419.5 265.4C413.7 277.4 407.6 289.3 401 301.3C392.8 316.3 383.7 333.2 376.8 351.3C365.3 381.4 358.1 416.8 373.7 444.6C390.3 474 422.8 486.8 454.8 493.5C474 497.5 493.4 499.4 511.1 502.2C526.9 504.7 541.8 508.7 555.6 514C586.7 526 612.4 545.4 630.1 573.7C633.5 579.1 636.7 584.8 639.4 591C654.1 623.7 651.5 655.5 645.1 688.7C640.5 712.4 634.2 736.6 632.7 762.6C632.6 763.5 632.6 764.5 632.6 765.4C631.2 795.5 635.4 829.1 653.6 853.9C666.6 871.6 688.2 881 710.5 884.7C722 886.6 733.6 887.1 744.5 886.6C756.7 886.1 768.7 884.5 780.6 882.5C801.9 878.9 822.7 874 843.6 871C868.2 867.5 892.6 867 916.5 869.7C960.6 874.8 1004.2 891.2 1039 922.3C1054 935.7 1066.9 951.7 1077.4 969.4C1081.4 976.2 1085.1 983.2 1088.4 990.4C1124 1068.3 1115 1165.8 1064.8 1235" stroke="#2C293A" stroke-miterlimit="10"/>
<path d="M58.6 -226.3C124.1 -227.3 189.1 -215.5 248.3 -189.9C305.9 -164.8 359.1 -125.3 396.9 -74.1C425.4 -35.4 444.1 7.59998 451.6 53.9C458.6 96.4 455.8 139.8 444.9 180.3C436.6 210.9 424 239.7 409.2 268.1C403 280 396.4 291.8 389.5 303.7C380.8 318.7 371.2 335.5 364 353.6C352 383.6 344.1 419.7 359.7 447.8C376.2 477.3 409.2 490.5 441.3 497C460.6 500.9 480.2 502.5 498 505C513.9 507.2 528.9 510.6 542.9 515.4C574.3 526.2 600.7 544 619.6 571C623.2 576.2 626.7 581.7 629.7 587.6C645.6 619.2 644.9 651 639.6 684.3C635.8 708.1 630 732.6 628.6 758.7C628.6 759.6 628.5 760.6 628.5 761.5C627.3 791.7 631.1 825.6 649.4 850.6C662.7 868.7 684.7 878.3 707.5 882C719.2 883.9 731.1 884.2 742.2 883.6C754.6 882.9 766.8 881.1 778.9 878.8C800.5 874.7 821.5 869.2 842.6 865.4C867.4 861 892 859.3 916.3 861C961 864 1006.1 878.4 1042.2 909.2C1057.8 922.5 1071.2 938.6 1082.1 956.5C1086.3 963.4 1090.1 970.5 1093.5 977.9C1130.4 1057.1 1121 1157 1069.1 1226.9" stroke="#2C293A" stroke-miterlimit="10"/>
<path d="M46.9 -220.9C113.1 -222.4 178.9 -211.9 239.2 -187.2C297.8 -163.1 352.5 -124.1 391.3 -72.8C420.4 -34.1 439.6 9.3 446.9 56.4C453.5 99.5 450 143.4 437.9 183.9C428.7 214.5 414.9 242.9 399.1 271C392.5 282.7 385.5 294.5 378.2 306.3C369 321.2 359 338 351.4 356.1C338.9 385.9 330.2 422.7 345.8 451.2C362.2 480.9 395.7 494.4 427.8 500.7C447.2 504.4 466.9 505.8 484.9 507.9C500.9 509.7 516 512.7 530.2 516.9C562 526.4 589 542.7 609 568.4C612.9 573.4 616.5 578.7 619.8 584.4C636.9 614.9 638.1 646.6 633.9 680C630.9 703.9 625.6 728.7 624.4 754.9C624.4 755.8 624.3 756.8 624.3 757.7C623.2 788.1 626.7 822.3 645.2 847.4C658.8 865.9 681.3 875.7 704.4 879.3C716.4 881.1 728.4 881.3 739.7 880.5C752.3 879.6 764.8 877.5 777 875C798.9 870.4 820.2 864.2 841.4 859.7C866.5 854.4 891.3 851.6 915.8 852.2C961.2 853.2 1007.6 865.6 1045 896.1C1061.2 909.2 1075.1 925.5 1086.3 943.7C1090.6 950.7 1094.6 957.9 1098.1 965.4C1136.3 1045.9 1126.5 1148.1 1072.9 1218.9" stroke="#2C293A" stroke-miterlimit="10"/>
<path d="M35.2 -215.6C102.1 -217.6 168.7 -208.3 230.1 -184.6C289.7 -161.4 345.9 -122.9 385.6 -71.6C415.4 -32.9 435 10.8 442 58.8C448.4 102.4 444 146.8 430.6 187.3C420.4 217.9 405.4 246 388.6 273.8C381.5 285.4 374.2 297 366.5 308.7C356.7 323.6 346.3 340.3 338.4 358.4C325.4 388.1 315.9 425.6 331.6 454.4C347.9 484.2 381.8 498.1 414.1 504.2C433.6 507.8 453.4 509 471.6 510.6C487.7 512.1 502.9 514.5 517.2 518.2C549.3 526.4 577 541.1 598.2 565.7C602.3 570.4 606.2 575.5 609.7 581.1C628.1 610.5 631.1 642.1 628 675.7C625.8 699.8 621 724.8 620 751.1C620 752.1 619.9 753 619.9 754C619 784.5 622.1 819.1 640.7 844.3C654.6 863.1 677.5 873.2 701.1 876.7C713.3 878.5 725.5 878.5 737.1 877.6C749.9 876.5 762.6 874.2 775 871.3C797.2 866.2 818.7 859.4 840.1 854.1C865.4 847.9 890.4 844 915.3 843.4C961.3 842.3 1009.1 852.7 1047.9 882.9C1064.6 895.9 1079 912.3 1090.7 930.7C1095.2 937.8 1099.2 945.1 1102.9 952.7C1142.5 1034.4 1132.2 1139.1 1076.9 1210.6" stroke="#2C293A" stroke-miterlimit="10"/>
<path d="M23.5 -210.2C91.2 -212.7 158.5 -204.6 221.1 -181.9C281.6 -159.7 339.3 -121.7 380.1 -70.4C410.6 -31.8 430.7 12.4 437.4 61.3C443.5 105.4 438.3 150.4 423.7 190.8C412.5 221.4 396.4 249.2 378.6 276.6C371.1 288.1 363.3 299.6 355.3 311.2C345 326.1 334.2 342.7 325.9 360.8C312.4 390.3 302.2 428.5 317.8 457.7C334 487.7 368.4 501.9 400.7 507.8C420.3 511.3 440.2 512.2 458.6 513.5C474.7 514.6 490.1 516.6 504.6 519.7C537 526.7 565.5 539.8 587.7 563.1C592 567.6 596.2 572.5 599.9 577.9C619.5 606.2 624.4 637.8 622.4 671.5C621 695.7 616.7 720.9 615.8 747.4C615.8 748.4 615.7 749.3 615.7 750.3C615 781 617.7 815.9 636.5 841.2C650.7 860.4 674 870.7 698.1 874.1C710.5 875.8 723 875.8 734.8 874.6C747.8 873.3 760.7 870.8 773.3 867.6C795.8 862 817.5 854.5 839.1 848.5C864.6 841.4 889.8 836.4 915.1 834.7C961.7 831.6 1010.9 840 1051.1 869.8C1068.4 882.7 1083.3 899.2 1095.3 917.9C1099.9 925.1 1104.1 932.5 1107.9 940.2C1148.8 1023.2 1138.1 1130.2 1081.1 1202.5" stroke="#2C293A" stroke-miterlimit="10"/>
<path d="M11.8 -204.9C80.2 -207.9 148.4 -201 212 -179.3C273.5 -158 332.7 -120.6 374.4 -69.2C405.6 -30.6 426.1 14 432.6 63.7C438.4 108.4 432.4 153.8 416.5 194.2C404.4 224.8 387.1 252.2 368.3 279.4C360.4 290.8 352.2 302.2 343.8 313.7C333 328.6 321.7 345.1 313.1 363.2C299.1 392.6 288.1 431.5 303.8 461C319.9 491.1 354.8 505.7 387.1 511.4C406.9 514.8 426.8 515.4 445.4 516.3C461.6 517.1 477.1 518.6 491.7 521.1C524.5 526.8 553.6 538.3 577 560.4C581.5 564.7 586 569.3 590 574.6C610.8 601.8 617.6 633.3 616.8 667.1C616.2 691.5 612.4 716.9 611.7 743.5C611.7 744.5 611.7 745.4 611.6 746.4C611.1 777.2 613.4 812.4 632.3 837.9C646.8 857.4 670.5 868 695 871.3C707.6 873 720.3 872.8 732.3 871.5C745.5 870 758.6 867.2 771.4 863.8C794.2 857.7 816.1 849.6 837.9 842.8C863.6 834.8 889 828.6 914.6 825.9C961.9 820.7 1012.4 827.1 1054 856.6C1071.9 869.3 1087.2 886 1099.7 904.9C1104.5 912.2 1108.8 919.7 1112.7 927.5C1154.9 1011.8 1143.8 1121.2 1085.1 1194.2" stroke="#2C293A" stroke-miterlimit="10"/>
<path d="M0.0999756 -199.5C69.2 -203.1 138.2 -197.4 202.9 -176.6C265.4 -156.3 326 -119.4 368.7 -67.9C400.5 -29.3 421.6 15.6 427.8 66.2C433.4 111.4 426.5 157.4 409.4 197.8C396.3 228.4 377.9 255.5 358 282.3C349.7 293.5 341.1 304.8 332.4 316.3C321.1 331.1 309.4 347.6 300.4 365.8C285.9 395 274.2 434.6 289.8 464.5C305.8 494.8 341.2 509.7 373.6 515.2C393.5 518.5 413.5 518.9 432.3 519.3C448.6 519.7 464.2 520.7 479 522.7C512.1 527.2 541.9 537.1 566.4 557.9C571.2 562 575.8 566.4 580.1 571.4C602.1 597.5 610.9 628.9 611.1 662.9C611.3 687.4 608 713.1 607.5 739.8C607.5 740.8 607.5 741.7 607.5 742.7C607.2 773.7 609.1 809.2 628.2 834.8C643 854.7 667.1 865.5 692.1 868.7C704.9 870.3 717.9 870 730.1 868.5C743.6 866.9 756.8 863.8 769.8 860.1C792.9 853.4 815 844.8 837 837.1C862.9 828.2 888.5 820.9 914.5 817C962.4 809.8 1014.3 814.2 1057.2 843.4C1075.7 856 1091.5 872.8 1104.3 892C1109.2 899.4 1113.7 907 1117.7 914.9C1161.2 1000.4 1149.7 1112.2 1089.3 1186.1" stroke="#2C293A" stroke-miterlimit="10"/>
<path d="M-11.6 -194.2C58.2 -198.2 128 -193.8 193.8 -174C257.3 -154.7 319.4 -118.3 363.1 -66.7C395.6 -28.1 417.1 17.2 423.1 68.6C428.4 114.3 420.7 160.8 402.3 201.2C388.3 231.8 368.6 258.6 347.8 285.1C339 296.2 330 307.4 321 318.8C309.2 333.6 297.1 350 287.7 368.2C272.7 397.3 260.2 437.6 275.8 467.8C291.7 498.2 327.6 513.5 360 518.8C380 522 400.1 521.8 419 522.1C435.4 522.4 451.1 522.7 466 524.1C499.4 527.3 530 535.6 555.6 555.3C560.6 559.1 565.5 563.4 570 568.2C593.2 593.2 603.9 624.5 605.2 658.6C606.2 683.3 603.3 709.2 603 736C603 737 603 738 603 738.9C602.8 770 604.5 805.9 623.6 831.6C638.7 851.9 663.2 863 688.6 866C701.7 867.6 714.8 867.2 727.3 865.5C741 863.7 754.5 860.4 767.6 856.4C791 849.2 813.3 839.9 835.5 831.5C861.7 821.7 887.5 813.3 913.7 808.3C962.2 799 1015.5 801.4 1059.8 830.3C1078.9 842.8 1095.2 859.7 1108.4 879.1C1113.5 886.5 1118.1 894.3 1122.2 902.3C1167 989.1 1155.1 1103.3 1093 1177.9" stroke="#2C293A" stroke-miterlimit="10"/>
<path d="M-23.3 -188.8C47.2999 -193.3 117.9 -190.1 184.7 -171.3C249.1 -152.9 312.8 -117 357.4 -65.4C390.6 -26.9 412.6 18.9 418.3 71.1C423.4 117.4 414.8 164.4 395.2 204.7C380.2 235.3 359.4 261.7 337.6 287.9C328.4 298.9 319 310 309.6 321.2C297.3 336 284.7 352.3 275 370.5C259.5 399.5 246.2 440.5 261.8 471.1C277.6 501.7 313.9 517.3 346.5 522.4C366.6 525.5 386.8 525.3 405.9 525C422.3 524.7 438.2 524.7 453.3 525.6C487.1 527.6 518.3 534.3 545 552.7C550.2 556.3 555.4 560.3 560.1 565C584.5 589 597.1 620.2 599.5 654.4C601.3 679.2 598.9 705.3 598.8 732.3C598.8 733.3 598.8 734.3 598.8 735.3C598.8 766.6 600.1 802.7 619.3 828.6C634.7 849.2 659.6 860.6 685.5 863.5C698.8 865 712.1 864.5 724.9 862.6C738.8 860.6 752.5 857 765.7 852.7C789.4 845 812 835.1 834.3 825.9C860.7 815.1 886.7 805.7 913.3 799.6C962.4 788.3 1017.1 788.7 1062.8 817.2C1082.4 829.5 1099.2 846.6 1112.8 866.2C1118 873.7 1122.7 881.6 1127 889.7C1173.1 977.8 1160.8 1094.3 1097 1169.7" stroke="#2C293A" stroke-miterlimit="10"/>
<path d="M-35 -183.5C36.3 -188.5 107.7 -186.5 175.7 -168.6C241.1 -151.2 306.2 -115.8 351.9 -64.2C385.7 -25.7 408.2 20.4 413.7 73.5C418.5 120.3 409.1 167.8 388.2 208.2C372.2 238.8 350.3 264.9 327.4 290.8C317.8 301.6 308 312.6 298.2 323.8C285.3 338.5 272.4 354.8 262.3 373C246.3 401.8 232.3 443.5 247.9 474.4C263.6 505.1 300.4 521.1 333 526C353.2 529 373.6 528.6 392.8 527.8C409.3 527.2 425.3 526.7 440.6 527C474.7 527.7 506.6 532.8 534.5 550C540 553.4 545.4 557.2 550.4 561.7C576 584.6 590.5 615.7 594.1 650.1C596.7 675 594.8 701.4 594.8 728.5C594.8 729.5 594.8 730.5 594.8 731.5C595 762.9 595.9 799.4 615.3 825.4C631 846.4 656.3 858 682.6 860.9C696.1 862.4 709.7 861.8 722.6 859.7C736.7 857.5 750.6 853.7 764 849.1C788 840.9 810.8 830.3 833.4 820.4C860 808.7 886.2 798.1 913.1 790.9C962.9 777.5 1018.9 775.9 1065.9 804.2C1086.1 816.4 1103.4 833.6 1117.4 853.5C1122.8 861.1 1127.6 869.1 1132 877.4C1179.5 966.7 1166.8 1085.7 1101.2 1161.8" stroke="#2C293A" stroke-miterlimit="10"/>
<path d="M-46.7 -178.1C25.3 -183.7 97.5 -182.9 166.6 -165.9C233 -149.4 299.6 -114.6 346.2 -62.9C380.7 -24.4 403.7 22.1 408.9 76C413.4 123.3 403.2 171.4 381.1 211.7C364.2 242.3 341 268.1 317.2 293.6C307.1 304.3 296.9 315.2 286.8 326.3C273.4 341 260.1 357.2 249.6 375.4C233.2 404 218.3 446.4 234 477.7C249.6 508.6 286.9 524.9 319.6 529.6C340 532.4 360.4 531.8 379.8 530.6C396.4 529.6 412.5 528.7 427.9 528.5C462.3 528 495 531.4 523.9 547.4C529.6 550.5 535.2 554.1 540.5 558.4C567.3 580.2 583.7 611.2 588.4 645.7C591.8 670.8 590.4 697.4 590.6 724.6C590.6 725.6 590.6 726.6 590.6 727.6C591 759.2 591.5 796 611 822.1C627 843.5 652.8 855.3 679.5 858.1C693.2 859.5 707 858.8 720.2 856.6C734.5 854.2 748.6 850.2 762.2 845.3C786.5 836.6 809.5 825.4 832.3 814.7C859.1 802.1 885.5 790.4 912.8 782.1C963.2 766.7 1020.6 763 1069 791C1089.8 803 1107.6 820.4 1121.9 840.5C1127.4 848.2 1132.4 856.3 1136.9 864.7C1185.7 955.3 1172.6 1076.6 1105.4 1153.6" stroke="#2C293A" stroke-miterlimit="10"/>
<path d="M-58.4 -172.8C14.4 -178.9 87.3 -179.3 157.5 -163.3C224.9 -147.8 293 -113.5 340.6 -61.7C375.8 -23.3 399.4 23.6 404.2 78.5C408.6 126.4 397.4 174.9 374 215.2C356.1 245.8 331.8 271.2 307 296.5C296.5 307.1 285.9 317.8 275.4 328.9C261.5 343.6 247.8 359.7 236.9 378C220 406.5 204.3 449.6 220 481.2C235.5 512.2 273.3 528.9 306 533.4C326.5 536.1 347 535.2 366.6 533.7C383.3 532.4 399.5 531 415.1 530.2C449.9 528.5 483.2 530.3 513.3 545.1C519.2 548 525.1 551.4 530.6 555.5C558.5 576.3 577 607.2 582.7 641.8C586.9 667 586 693.9 586.4 721.2C586.4 722.2 586.4 723.2 586.4 724.2C586.9 755.9 587.1 793.1 606.8 819.3C623.1 841 649.3 853.1 676.4 855.8C690.4 857.2 704.3 856.3 717.8 853.9C732.4 851.3 746.6 847 760.4 841.9C785 832.7 808.2 820.8 831.2 809.4C858.2 795.9 884.8 783.1 912.4 773.7C963.4 756.2 1022.3 750.6 1072 778.2C1093.4 790.1 1111.6 807.6 1126.4 828C1132.1 835.8 1137.2 844 1141.8 852.5C1191.9 944.4 1178.4 1068.1 1109.5 1145.8" stroke="#2C293A" stroke-miterlimit="10"/>
<path d="M-70.1 -167.4C3.40002 -174 77.2 -175.6 148.4 -160.6C216.7 -146.1 286.3 -112.2 334.9 -60.4C370.8 -22 394.8 25.3 399.4 81C403.5 129.4 391.5 178.5 366.9 218.7C348 249.3 322.6 274.4 296.7 299.3C285.8 309.8 274.8 320.4 263.9 331.4C249.5 346 235.3 362 224.1 380.4C206.7 408.8 190.3 452.5 205.9 484.5C221.3 515.7 259.6 532.7 292.3 537C312.9 539.6 333.5 538.5 353.3 536.5C370 534.8 386.4 532.9 402.1 531.6C437.2 528.7 471.3 528.8 502.4 542.4C508.5 545.1 514.7 548.3 520.5 552.2C549.6 571.9 570 602.7 576.8 637.4C581.8 662.8 581.4 689.8 581.9 717.3C581.9 718.3 581.9 719.3 582 720.3C582.7 752.2 582.5 789.6 602.3 816.1C618.9 838.2 645.5 850.5 673.1 853.1C687.3 854.5 701.5 853.5 715.1 850.9C729.9 848.2 744.4 843.6 758.3 838.1C783.2 828.4 806.6 815.9 829.8 803.7C857.1 789.3 883.9 775.4 911.8 764.8C963.5 745.3 1023.7 737.6 1074.8 765C1096.8 776.8 1115.5 794.4 1130.6 815C1136.4 822.9 1141.7 831.2 1146.4 839.8C1197.8 933 1183.9 1059 1113.3 1137.5" stroke="#2C293A" stroke-miterlimit="10"/>
<path d="M-81.8 -162.1C-7.60005 -169.2 67 -172.1 139.3 -158C208.6 -144.4 279.7 -111.1 329.2 -59.2C365.7 -20.8 390.3 26.8 394.5 83.4C398.4 132.3 385.5 182 359.6 222.2C339.8 252.8 313.2 277.6 286.3 302.2C275 312.5 263.5 323 252.3 334C237.3 348.6 222.8 364.5 211.2 382.9C193.3 411.1 176.1 455.6 191.8 487.9C207.1 519.2 245.9 536.6 278.7 540.7C299.4 543.2 320.1 541.8 340.1 539.4C356.9 537.4 373.4 535 389.3 533.1C424.7 528.9 459.5 527.4 491.8 539.8C498.2 542.2 504.5 545.2 510.6 549C540.9 567.7 563.2 598.3 571.1 633.2C576.9 658.7 577 686 577.7 713.6C577.7 714.6 577.8 715.6 577.8 716.6C578.7 748.6 578.1 786.4 598.1 813C615 835.5 642 848 670 850.5C684.4 851.8 698.8 850.7 712.7 847.9C727.7 845 742.4 840.2 756.5 834.4C781.7 824.2 805.3 811.1 828.7 798.1C856.2 782.8 883.2 767.7 911.5 756.1C963.8 734.5 1025.4 724.9 1077.8 751.9C1100.3 763.5 1119.5 781.3 1135.1 802.2C1141 810.2 1146.5 818.6 1151.3 827.3C1204 921.7 1189.7 1050.2 1117.4 1129.4" stroke="#2C293A" stroke-miterlimit="10"/>
<path d="M-93.5 -156.8C-18.6 -164.4 56.8 -168.5 130.3 -155.4C200.6 -142.8 273.2 -110 323.7 -58.1C360.9 -19.7 385.9 28.3 389.9 85.7C393.5 135.2 379.8 185.3 352.7 225.5C331.9 256.1 304.1 280.5 276.3 304.8C264.5 315 252.7 325.4 241.1 336.2C225.6 350.7 210.7 366.7 198.7 385C180.4 413.1 162.4 458.2 178 490.9C193.2 522.4 232.4 540.1 265.3 544C286.1 546.4 306.9 544.8 327.1 542C344 539.7 360.6 536.8 376.7 534.3C412.5 528.9 447.9 525.7 481.3 536.9C487.9 539.1 494.5 541.9 500.8 545.5C532.3 563.1 556.5 593.6 565.6 628.7C572.2 654.4 572.8 681.9 573.7 709.7C573.7 710.7 573.8 711.7 573.8 712.8C574.9 745 573.9 783.1 594 809.8C611.2 832.6 638.6 845.4 667.1 847.8C681.7 849.1 696.3 847.8 710.5 844.9C725.7 841.8 740.6 836.7 754.9 830.7C780.4 820 804.2 806.2 827.8 792.4C855.5 776.2 882.7 760 911.3 747.2C964.2 723.6 1027.2 711.9 1081 738.6C1104.1 750.1 1123.8 768 1139.7 789.1C1145.8 797.2 1151.3 805.7 1156.3 814.5C1210.3 910.2 1195.6 1041 1121.6 1121.1" stroke="#2C293A" stroke-miterlimit="10"/>
<path d="M-105.2 -151.4C-29.5001 -159.5 46.6999 -164.8 121.2 -152.7C192.5 -141 266.5 -108.8 318 -56.8C355.9 -18.5 381.4 30 385.1 88.2C388.4 138.2 373.9 188.9 345.5 229C323.7 259.6 294.8 283.7 265.9 307.6C253.7 317.7 241.4 328 229.5 338.7C213.5 353.2 198.2 369.1 185.8 387.4C167 415.4 148.2 461.2 163.9 494.2C179 525.8 218.7 543.9 251.7 547.6C272.7 549.9 293.5 548 313.9 544.8C330.9 542.1 347.6 538.7 363.8 535.7C399.9 529 436.1 524.3 470.6 534.3C477.4 536.3 484.3 538.9 490.8 542.2C523.4 558.8 549.7 589.1 559.8 624.3C567.3 650.1 568.2 677.9 569.3 705.8C569.3 706.8 569.4 707.9 569.4 708.9C570.7 741.2 569.3 779.6 589.6 806.5C607.1 829.7 634.9 842.7 663.8 845C678.7 846.2 693.5 844.8 707.8 841.7C723.2 838.4 738.3 833.1 752.8 826.8C778.6 815.5 802.7 801.2 826.4 786.6C854.3 769.5 881.7 752.2 910.7 738.3C964.2 712.6 1028.6 699 1083.8 725.3C1107.5 736.6 1127.7 754.7 1144 776.1C1150.2 784.3 1155.9 792.9 1161 801.8C1216.3 898.8 1201.2 1032 1125.5 1112.8" stroke="#2C293A" stroke-miterlimit="10"/>
<path d="M-116.9 -146.1C-40.5 -154.7 36.5 -161.2 112.1 -150.1C184.4 -139.4 259.9 -107.6 312.4 -55.6C350.9 -17.3 376.9 31.5 380.4 90.6C383.5 141.1 368.2 192.3 338.5 232.4C315.8 263 285.7 286.7 255.8 310.4C243.2 320.4 230.5 330.5 218.2 341.2C201.7 355.7 185.9 371.5 173.2 389.8C153.9 417.6 134.3 464.1 150 497.5C165 529.3 205.2 547.7 238.2 551.2C259.3 553.4 280.3 551.2 300.8 547.6C317.9 544.6 334.6 540.7 351.1 537.1C387.6 529.2 424.4 522.8 460 531.6C467.1 533.3 474.1 535.8 481 538.9C514.8 554.5 543.1 584.7 554.2 620C562.5 645.9 563.9 673.9 565.2 702C565.2 703 565.3 704.1 565.3 705.1C566.7 737.6 565.1 776.3 585.4 803.3C603.2 826.9 631.4 840.1 660.8 842.3C675.9 843.5 690.9 842 705.5 838.7C721.2 835.2 736.4 829.6 751 823.1C777.1 811.3 801.4 796.3 825.3 781C853.4 763 881 744.6 910.3 729.6C964.5 701.9 1030.2 686.2 1086.8 712.3C1111.1 723.5 1131.7 741.7 1148.4 763.3C1154.8 771.6 1160.6 780.3 1165.8 789.3C1222.5 887.5 1206.9 1023.1 1129.5 1104.7" stroke="#2C293A" stroke-miterlimit="10"/>
<path d="M-128.6 -140.7C-51.5 -149.8 26.3 -157.6 103 -147.4C176.2 -137.7 253.2 -106.4 306.7 -54.3C345.9 -16 372.4 33.2 375.6 93.1C378.4 144.2 362.3 195.9 331.3 236C307.6 266.6 276.3 290 245.5 313.3C232.5 323.1 219.3 333.1 206.8 343.8C189.7 358.2 173.6 374 160.5 392.4C140.8 420.1 120.4 467.3 136.1 501C151 532.9 191.7 551.7 224.8 554.9C246 557 267.1 554.6 287.7 550.6C304.8 547.3 321.7 542.9 338.3 538.7C375.1 529.5 412.7 521.4 449.4 529.1C456.7 530.6 464 532.8 471.1 535.8C506.1 550.4 536.3 580.4 548.5 615.8C557.6 641.9 559.5 670.1 560.9 698.3C561 699.3 561 700.4 561.1 701.4C562.7 734 560.7 773.1 581.2 800.2C599.3 824.1 628 837.6 657.7 839.7C673 840.8 688.3 839.2 703.1 835.8C719 832.1 734.5 826.3 749.2 819.4C775.6 807.1 800.1 791.5 824.2 775.4C852.5 756.5 880.4 736.9 910 720.8C964.8 691 1031.9 673.3 1089.8 699.1C1114.7 710.2 1135.8 728.5 1152.9 750.4C1159.4 758.8 1165.4 767.6 1170.7 776.7C1228.7 876.2 1212.7 1014.2 1133.6 1096.5" stroke="#2C293A" stroke-miterlimit="10"/>
<path d="M-140.3 -135.4C-62.5 -145 16.1 -154 93.9 -144.8C168.1 -136 246.6 -105.3 301 -53.1C340.9 -14.9 367.8 34.8 370.8 95.6C373.4 147.2 356.4 199.4 324.2 239.5C299.6 270.1 267.1 293.2 235.2 316.2C221.7 325.9 208.2 335.8 195.3 346.4C177.7 360.7 161.2 376.5 147.7 394.9C127.5 422.5 106.3 470.3 122 504.4C136.8 536.5 178 555.6 211.1 558.6C232.4 560.6 253.6 558 274.4 553.5C291.6 549.8 308.6 544.9 325.4 540.2C362.5 529.8 400.8 520.1 438.6 526.5C446.1 527.8 453.6 529.8 461 532.6C497.2 546.2 529.3 576 542.7 611.6C552.6 637.8 555 666.3 556.6 694.6C556.7 695.6 556.7 696.7 556.8 697.7C558.6 730.5 556.2 769.9 576.8 797.1C595.2 821.4 624.3 835.1 654.5 837.2C670 838.3 685.5 836.5 700.6 832.9C716.7 829 732.4 823 747.3 815.8C774 803 798.7 786.8 823 769.9C851.6 750.1 879.6 729.4 909.5 712.2C964.9 680.3 1033.4 660.7 1092.7 686.1C1118.1 697 1139.8 715.5 1157.2 737.6C1163.9 746 1170 755 1175.4 764.3C1234.7 865.1 1218.3 1005.4 1137.5 1088.6" stroke="#2C293A" stroke-miterlimit="10"/>
<path d="M-152 -130C-73.4 -140.2 6.00001 -150.3 84.9 -142.1C215.1 -128.6 359.7 -47.9 366.2 98C368.5 150.1 350.7 202.9 317.2 242.9C291.6 273.5 258 296.2 225.1 318.9C192.2 341.6 159.1 365.2 135.1 397.1C114.4 424.5 92.4 473.1 108.1 507.5C122.8 539.7 164.5 559.2 197.7 562C236.8 565.4 275.3 553.1 312.8 541.5C350.3 529.9 389.2 518.5 428.2 523.7C474 529.9 519.8 564.1 537.2 607.1C548.3 634.4 551 664.3 552.8 693.7C554.8 726.6 552 766.3 572.8 793.7C591.5 818.4 621 832.3 651.6 834.3C684.1 836.4 716.4 826.3 745.6 811.9C804.3 783 853.2 737.2 909.3 703.2C965.4 669.3 1035.2 647.6 1095.9 672.8C1131.9 687.7 1160.4 717.7 1180.5 751.5C1241.1 853.5 1224.3 996.3 1141.8 1080.2" stroke="#2C293A" stroke-miterlimit="10"/>
</g>
<mask id="mask1_201_236" style="mask-type:luminance" maskUnits="userSpaceOnUse" x="0" y="0" width="1200" height="800">
<path d="M1200 0H0V800H1200V0Z" fill="white"/>
</mask>
<g mask="url(#mask1_201_236)">
<path d="M-26.2 -25.2C13.1 -17.1 53.5 -18.3 93.5 -15.8C136.7 -13.1 184.5 -4.10001 219.6 23C260.9 54.9 264.2 109.2 240.3 153.4C218.6 193.6 180.3 219.3 149.6 251.5C128.7 273.4 108.9 302.7 104.7 333.4C98.2 380.1 145.7 414.8 179.5 372.2C194.9 352.8 199.8 327.2 213.6 306.7C228.4 284.7 249 266.6 272.9 255C297.6 243 325.4 238.4 352.7 240.7C378.7 243 400 257.8 425.9 261.4C445.3 264.1 466.7 260.4 481 247C508 221.9 504.6 173.1 501.1 139.8C496.5 97.2 482.6 55.5 460.4 18.8C438.1 -18.2 403.7 -44.2 378.9 -79.1C362.1 -102.9 351.1 -133.3 359.4 -161.3L-26.2 -25.2Z" fill="#58468C"/>
</g>
<mask id="mask2_201_236" style="mask-type:luminance" maskUnits="userSpaceOnUse" x="0" y="0" width="1200" height="800">
<path d="M1200 0H0V800H1200V0Z" fill="white"/>
</mask>
<g mask="url(#mask2_201_236)">
<path d="M297.9 413.3C320.4 425.1 351.6 428.6 372 436.9C469.2 476.6 388 618.2 438.2 687.5C465.8 725.7 518.3 735.4 565.4 736.2C612.5 737 662 732.3 704.6 752.4C751.1 774.3 781.6 826.3 778 877.6L777.7 877.2C824.3 850 866.2 823.8 906.5 787.9C946.8 752.1 980.6 706.8 993.9 654.5C1007.2 602.2 997.6 542.5 961.1 502.7C927.9 466.5 877.1 450 828.8 451.5C772.7 453.2 719.2 481.3 662.6 467C622.4 456.9 588.4 431.5 565.8 396.8C531.2 343.6 468.1 316.6 406.4 312.6C376.6 310.7 343.3 310.1 314.5 319.4C297.8 324.9 282 335.5 274.2 351.3C262.5 375.4 275.6 401.6 297.9 413.3Z" fill="#58468C"/>
</g>
<mask id="mask3_201_236" style="mask-type:luminance" maskUnits="userSpaceOnUse" x="0" y="0" width="1200" height="800">
<path d="M1200 0H0V800H1200V0Z" fill="white"/>
</mask>
<g mask="url(#mask3_201_236)">
<path d="M1149 571C1150.1 571 1151 570.105 1151 569C1151 567.895 1150.1 567 1149 567C1147.9 567 1147 567.895 1147 569C1147 570.105 1147.9 571 1149 571Z" fill="#929BFF"/>
<path d="M1126 571C1127.1 571 1128 570.105 1128 569C1128 567.895 1127.1 567 1126 567C1124.9 567 1124 567.895 1124 569C1124 570.105 1124.9 571 1126 571Z" fill="#929BFF"/>
<path d="M1103 571C1104.1 571 1105 570.105 1105 569C1105 567.895 1104.1 567 1103 567C1101.9 567 1101 567.895 1101 569C1101 570.105 1101.9 571 1103 571Z" fill="#929BFF"/>
<path d="M1080 571C1081.1 571 1082 570.105 1082 569C1082 567.895 1081.1 567 1080 567C1078.9 567 1078 567.895 1078 569C1078 570.105 1078.9 571 1080 571Z" fill="#929BFF"/>
<path d="M1057 571C1058.1 571 1059 570.105 1059 569C1059 567.895 1058.1 567 1057 567C1055.9 567 1055 567.895 1055 569C1055 570.105 1055.9 571 1057 571Z" fill="#929BFF"/>
<path d="M1034 571C1035.1 571 1036 570.105 1036 569C1036 567.895 1035.1 567 1034 567C1032.9 567 1032 567.895 1032 569C1032 570.105 1032.9 571 1034 571Z" fill="#929BFF"/>
<path d="M1011 571C1012.1 571 1013 570.105 1013 569C1013 567.895 1012.1 567 1011 567C1009.9 567 1009 567.895 1009 569C1009 570.105 1009.9 571 1011 571Z" fill="#929BFF"/>
<path d="M988 571C989.105 571 990 570.105 990 569C990 567.895 989.105 567 988 567C986.895 567 986 567.895 986 569C986 570.105 986.895 571 988 571Z" fill="#929BFF"/>
<path d="M965 571C966.105 571 967 570.105 967 569C967 567.895 966.105 567 965 567C963.895 567 963 567.895 963 569C963 570.105 963.895 571 965 571Z" fill="#929BFF"/>
<path d="M942 571C943.105 571 944 570.105 944 569C944 567.895 943.105 567 942 567C940.895 567 940 567.895 940 569C940 570.105 940.895 571 942 571Z" fill="#929BFF"/>
<path d="M919 571C920.105 571 921 570.105 921 569C921 567.895 920.105 567 919 567C917.895 567 917 567.895 917 569C917 570.105 917.895 571 919 571Z" fill="#929BFF"/>
<path d="M896 571C897.105 571 898 570.105 898 569C898 567.895 897.105 567 896 567C894.895 567 894 567.895 894 569C894 570.105 894.895 571 896 571Z" fill="#929BFF"/>
<path d="M873 571C874.105 571 875 570.105 875 569C875 567.895 874.105 567 873 567C871.895 567 871 567.895 871 569C871 570.105 871.895 571 873 571Z" fill="#929BFF"/>
<path d="M850 571C851.105 571 852 570.105 852 569C852 567.895 851.105 567 850 567C848.895 567 848 567.895 848 569C848 570.105 848.895 571 850 571Z" fill="#929BFF"/>
<path d="M827 571C828.105 571 829 570.105 829 569C829 567.895 828.105 567 827 567C825.895 567 825 567.895 825 569C825 570.105 825.895 571 827 571Z" fill="#929BFF"/>
<path d="M804 571C805.105 571 806 570.105 806 569C806 567.895 805.105 567 804 567C802.895 567 802 567.895 802 569C802 570.105 802.895 571 804 571Z" fill="#929BFF"/>
<path d="M1149 546C1150.1 546 1151 545.105 1151 544C1151 542.895 1150.1 542 1149 542C1147.9 542 1147 542.895 1147 544C1147 545.105 1147.9 546 1149 546Z" fill="#929BFF"/>
<path d="M1126 546C1127.1 546 1128 545.105 1128 544C1128 542.895 1127.1 542 1126 542C1124.9 542 1124 542.895 1124 544C1124 545.105 1124.9 546 1126 546Z" fill="#929BFF"/>
<path d="M1103 546C1104.1 546 1105 545.105 1105 544C1105 542.895 1104.1 542 1103 542C1101.9 542 1101 542.895 1101 544C1101 545.105 1101.9 546 1103 546Z" fill="#929BFF"/>
<path d="M1080 546C1081.1 546 1082 545.105 1082 544C1082 542.895 1081.1 542 1080 542C1078.9 542 1078 542.895 1078 544C1078 545.105 1078.9 546 1080 546Z" fill="#929BFF"/>
<path d="M1057 546C1058.1 546 1059 545.105 1059 544C1059 542.895 1058.1 542 1057 542C1055.9 542 1055 542.895 1055 544C1055 545.105 1055.9 546 1057 546Z" fill="#929BFF"/>
<path d="M1034 546C1035.1 546 1036 545.105 1036 544C1036 542.895 1035.1 542 1034 542C1032.9 542 1032 542.895 1032 544C1032 545.105 1032.9 546 1034 546Z" fill="#929BFF"/>
<path d="M1011 546C1012.1 546 1013 545.105 1013 544C1013 542.895 1012.1 542 1011 542C1009.9 542 1009 542.895 1009 544C1009 545.105 1009.9 546 1011 546Z" fill="#929BFF"/>
<path d="M988 546C989.105 546 990 545.105 990 544C990 542.895 989.105 542 988 542C986.895 542 986 542.895 986 544C986 545.105 986.895 546 988 546Z" fill="#929BFF"/>
<path d="M965 546C966.105 546 967 545.105 967 544C967 542.895 966.105 542 965 542C963.895 542 963 542.895 963 544C963 545.105 963.895 546 965 546Z" fill="#929BFF"/>
<path d="M942 546C943.105 546 944 545.105 944 544C944 542.895 943.105 542 942 542C940.895 542 940 542.895 940 544C940 545.105 940.895 546 942 546Z" fill="#929BFF"/>
<path d="M919 546C920.105 546 921 545.105 921 544C921 542.895 920.105 542 919 542C917.895 542 917 542.895 917 544C917 545.105 917.895 546 919 546Z" fill="#929BFF"/>
<path d="M896 546C897.105 546 898 545.105 898 544C898 542.895 897.105 542 896 542C894.895 542 894 542.895 894 544C894 545.105 894.895 546 896 546Z" fill="#929BFF"/>
<path d="M873 546C874.105 546 875 545.105 875 544C875 542.895 874.105 542 873 542C871.895 542 871 542.895 871 544C871 545.105 871.895 546 873 546Z" fill="#929BFF"/>
<path d="M850 546C851.105 546 852 545.105 852 544C852 542.895 851.105 542 850 542C848.895 542 848 542.895 848 544C848 545.105 848.895 546 850 546Z" fill="#929BFF"/>
<path d="M827 546C828.105 546 829 545.105 829 544C829 542.895 828.105 542 827 542C825.895 542 825 542.895 825 544C825 545.105 825.895 546 827 546Z" fill="#929BFF"/>
<path d="M804 546C805.105 546 806 545.105 806 544C806 542.895 805.105 542 804 542C802.895 542 802 542.895 802 544C802 545.105 802.895 546 804 546Z" fill="#929BFF"/>
<path d="M1149 521C1150.1 521 1151 520.105 1151 519C1151 517.895 1150.1 517 1149 517C1147.9 517 1147 517.895 1147 519C1147 520.105 1147.9 521 1149 521Z" fill="#929BFF"/>
<path d="M1126 521C1127.1 521 1128 520.105 1128 519C1128 517.895 1127.1 517 1126 517C1124.9 517 1124 517.895 1124 519C1124 520.105 1124.9 521 1126 521Z" fill="#929BFF"/>
<path d="M1103 521C1104.1 521 1105 520.105 1105 519C1105 517.895 1104.1 517 1103 517C1101.9 517 1101 517.895 1101 519C1101 520.105 1101.9 521 1103 521Z" fill="#929BFF"/>
<path d="M1080 521C1081.1 521 1082 520.105 1082 519C1082 517.895 1081.1 517 1080 517C1078.9 517 1078 517.895 1078 519C1078 520.105 1078.9 521 1080 521Z" fill="#929BFF"/>
<path d="M1057 521C1058.1 521 1059 520.105 1059 519C1059 517.895 1058.1 517 1057 517C1055.9 517 1055 517.895 1055 519C1055 520.105 1055.9 521 1057 521Z" fill="#929BFF"/>
<path d="M1034 521C1035.1 521 1036 520.105 1036 519C1036 517.895 1035.1 517 1034 517C1032.9 517 1032 517.895 1032 519C1032 520.105 1032.9 521 1034 521Z" fill="#929BFF"/>
<path d="M1011 521C1012.1 521 1013 520.105 1013 519C1013 517.895 1012.1 517 1011 517C1009.9 517 1009 517.895 1009 519C1009 520.105 1009.9 521 1011 521Z" fill="#929BFF"/>
<path d="M988 521C989.105 521 990 520.105 990 519C990 517.895 989.105 517 988 517C986.895 517 986 517.895 986 519C986 520.105 986.895 521 988 521Z" fill="#929BFF"/>
<path d="M965 521C966.105 521 967 520.105 967 519C967 517.895 966.105 517 965 517C963.895 517 963 517.895 963 519C963 520.105 963.895 521 965 521Z" fill="#929BFF"/>
<path d="M942 521C943.105 521 944 520.105 944 519C944 517.895 943.105 517 942 517C940.895 517 940 517.895 940 519C940 520.105 940.895 521 942 521Z" fill="#929BFF"/>
<path d="M919 521C920.105 521 921 520.105 921 519C921 517.895 920.105 517 919 517C917.895 517 917 517.895 917 519C917 520.105 917.895 521 919 521Z" fill="#929BFF"/>
<path d="M896 521C897.105 521 898 520.105 898 519C898 517.895 897.105 517 896 517C894.895 517 894 517.895 894 519C894 520.105 894.895 521 896 521Z" fill="#929BFF"/>
<path d="M873 521C874.105 521 875 520.105 875 519C875 517.895 874.105 517 873 517C871.895 517 871 517.895 871 519C871 520.105 871.895 521 873 521Z" fill="#929BFF"/>
<path d="M850 521C851.105 521 852 520.105 852 519C852 517.895 851.105 517 850 517C848.895 517 848 517.895 848 519C848 520.105 848.895 521 850 521Z" fill="#929BFF"/>
<path d="M827 521C828.105 521 829 520.105 829 519C829 517.895 828.105 517 827 517C825.895 517 825 517.895 825 519C825 520.105 825.895 521 827 521Z" fill="#929BFF"/>
<path d="M804 521C805.105 521 806 520.105 806 519C806 517.895 805.105 517 804 517C802.895 517 802 517.895 802 519C802 520.105 802.895 521 804 521Z" fill="#929BFF"/>
<path d="M1149 496C1150.1 496 1151 495.105 1151 494C1151 492.895 1150.1 492 1149 492C1147.9 492 1147 492.895 1147 494C1147 495.105 1147.9 496 1149 496Z" fill="#929BFF"/>
<path d="M1126 496C1127.1 496 1128 495.105 1128 494C1128 492.895 1127.1 492 1126 492C1124.9 492 1124 492.895 1124 494C1124 495.105 1124.9 496 1126 496Z" fill="#929BFF"/>
<path d="M1103 496C1104.1 496 1105 495.105 1105 494C1105 492.895 1104.1 492 1103 492C1101.9 492 1101 492.895 1101 494C1101 495.105 1101.9 496 1103 496Z" fill="#929BFF"/>
<path d="M1080 496C1081.1 496 1082 495.105 1082 494C1082 492.895 1081.1 492 1080 492C1078.9 492 1078 492.895 1078 494C1078 495.105 1078.9 496 1080 496Z" fill="#929BFF"/>
<path d="M1057 496C1058.1 496 1059 495.105 1059 494C1059 492.895 1058.1 492 1057 492C1055.9 492 1055 492.895 1055 494C1055 495.105 1055.9 496 1057 496Z" fill="#929BFF"/>
<path d="M1034 496C1035.1 496 1036 495.105 1036 494C1036 492.895 1035.1 492 1034 492C1032.9 492 1032 492.895 1032 494C1032 495.105 1032.9 496 1034 496Z" fill="#929BFF"/>
<path d="M1011 496C1012.1 496 1013 495.105 1013 494C1013 492.895 1012.1 492 1011 492C1009.9 492 1009 492.895 1009 494C1009 495.105 1009.9 496 1011 496Z" fill="#929BFF"/>
<path d="M988 496C989.105 496 990 495.105 990 494C990 492.895 989.105 492 988 492C986.895 492 986 492.895 986 494C986 495.105 986.895 496 988 496Z" fill="#929BFF"/>
<path d="M965 496C966.105 496 967 495.105 967 494C967 492.895 966.105 492 965 492C963.895 492 963 492.895 963 494C963 495.105 963.895 496 965 496Z" fill="#929BFF"/>
<path d="M942 496C943.105 496 944 495.105 944 494C944 492.895 943.105 492 942 492C940.895 492 940 492.895 940 494C940 495.105 940.895 496 942 496Z" fill="#929BFF"/>
<path d="M919 496C920.105 496 921 495.105 921 494C921 492.895 920.105 492 919 492C917.895 492 917 492.895 917 494C917 495.105 917.895 496 919 496Z" fill="#929BFF"/>
<path d="M896 496C897.105 496 898 495.105 898 494C898 492.895 897.105 492 896 492C894.895 492 894 492.895 894 494C894 495.105 894.895 496 896 496Z" fill="#929BFF"/>
<path d="M873 496C874.105 496 875 495.105 875 494C875 492.895 874.105 492 873 492C871.895 492 871 492.895 871 494C871 495.105 871.895 496 873 496Z" fill="#929BFF"/>
<path d="M850 496C851.105 496 852 495.105 852 494C852 492.895 851.105 492 850 492C848.895 492 848 492.895 848 494C848 495.105 848.895 496 850 496Z" fill="#929BFF"/>
<path d="M827 496C828.105 496 829 495.105 829 494C829 492.895 828.105 492 827 492C825.895 492 825 492.895 825 494C825 495.105 825.895 496 827 496Z" fill="#929BFF"/>
<path d="M804 496C805.105 496 806 495.105 806 494C806 492.895 805.105 492 804 492C802.895 492 802 492.895 802 494C802 495.105 802.895 496 804 496Z" fill="#929BFF"/>
<path d="M1149 471C1150.1 471 1151 470.105 1151 469C1151 467.895 1150.1 467 1149 467C1147.9 467 1147 467.895 1147 469C1147 470.105 1147.9 471 1149 471Z" fill="#929BFF"/>
<path d="M1126 471C1127.1 471 1128 470.105 1128 469C1128 467.895 1127.1 467 1126 467C1124.9 467 1124 467.895 1124 469C1124 470.105 1124.9 471 1126 471Z" fill="#929BFF"/>
<path d="M1103 471C1104.1 471 1105 470.105 1105 469C1105 467.895 1104.1 467 1103 467C1101.9 467 1101 467.895 1101 469C1101 470.105 1101.9 471 1103 471Z" fill="#929BFF"/>
<path d="M1080 471C1081.1 471 1082 470.105 1082 469C1082 467.895 1081.1 467 1080 467C1078.9 467 1078 467.895 1078 469C1078 470.105 1078.9 471 1080 471Z" fill="#929BFF"/>
<path d="M1057 471C1058.1 471 1059 470.105 1059 469C1059 467.895 1058.1 467 1057 467C1055.9 467 1055 467.895 1055 469C1055 470.105 1055.9 471 1057 471Z" fill="#929BFF"/>
<path d="M1034 471C1035.1 471 1036 470.105 1036 469C1036 467.895 1035.1 467 1034 467C1032.9 467 1032 467.895 1032 469C1032 470.105 1032.9 471 1034 471Z" fill="#929BFF"/>
<path d="M1011 471C1012.1 471 1013 470.105 1013 469C1013 467.895 1012.1 467 1011 467C1009.9 467 1009 467.895 1009 469C1009 470.105 1009.9 471 1011 471Z" fill="#929BFF"/>
<path d="M988 471C989.105 471 990 470.105 990 469C990 467.895 989.105 467 988 467C986.895 467 986 467.895 986 469C986 470.105 986.895 471 988 471Z" fill="#929BFF"/>
<path d="M965 471C966.105 471 967 470.105 967 469C967 467.895 966.105 467 965 467C963.895 467 963 467.895 963 469C963 470.105 963.895 471 965 471Z" fill="#929BFF"/>
<path d="M942 471C943.105 471 944 470.105 944 469C944 467.895 943.105 467 942 467C940.895 467 940 467.895 940 469C940 470.105 940.895 471 942 471Z" fill="#929BFF"/>
<path d="M919 471C920.105 471 921 470.105 921 469C921 467.895 920.105 467 919 467C917.895 467 917 467.895 917 469C917 470.105 917.895 471 919 471Z" fill="#929BFF"/>
<path d="M896 471C897.105 471 898 470.105 898 469C898 467.895 897.105 467 896 467C894.895 467 894 467.895 894 469C894 470.105 894.895 471 896 471Z" fill="#929BFF"/>
<path d="M873 471C874.105 471 875 470.105 875 469C875 467.895 874.105 467 873 467C871.895 467 871 467.895 871 469C871 470.105 871.895 471 873 471Z" fill="#929BFF"/>
<path d="M850 471C851.105 471 852 470.105 852 469C852 467.895 851.105 467 850 467C848.895 467 848 467.895 848 469C848 470.105 848.895 471 850 471Z" fill="#929BFF"/>
<path d="M827 471C828.105 471 829 470.105 829 469C829 467.895 828.105 467 827 467C825.895 467 825 467.895 825 469C825 470.105 825.895 471 827 471Z" fill="#929BFF"/>
<path d="M804 471C805.105 471 806 470.105 806 469C806 467.895 805.105 467 804 467C802.895 467 802 467.895 802 469C802 470.105 802.895 471 804 471Z" fill="#929BFF"/>
</g>
<mask id="mask4_201_236" style="mask-type:luminance" maskUnits="userSpaceOnUse" x="0" y="0" width="1200" height="800">
<path d="M1200 0H0V800H1200V0Z" fill="white"/>
</mask>
<g mask="url(#mask4_201_236)">
<path d="M-145.2 -25C-107.1 -64.4 -37.8999 -66.5 2.90005 -29.5C45.5001 9.2 52.6 76 92.3 117.7C130.4 157.7 190.6 166.1 245.1 161.7C299.6 157.3 353.3 142.4 407.9 145.1C462.5 147.8 521.3 173.8 541.8 225.4C559.5 270.1 544.4 320.1 535.6 367.3C526.9 414.5 528.7 472 567.4 499.9C612.9 532.8 670.5 504.5 720.1 501.7C804.3 497.1 888.8 536 935.3 607.2C982.8 679.8 986.4 779.5 944.3 855" stroke="#9254FF" stroke-width="2" stroke-miterlimit="10"/>
<path d="M-134.1 -32.3C-95.4 -70 -27 -71.3 13.8 -34.7C47.1 -4.90002 59.6 41.5 81.9 80.4C88.3 91.5 95.4 102 104 111.3C141.5 151.6 199.3 161.9 251.2 159.9C286.7 158.5 321.6 152.5 356.5 150.2C372.7 149.1 388.8 148.9 405.1 150.5C425.8 152.5 447.4 158.1 467.5 167.2C497.5 180.8 523.7 201.9 536.7 231.7C540.1 239.4 542.4 247.2 544 255.2C551.3 292 541.6 332 535.4 370.6C534.4 376.7 533.6 383 532.9 389.4C528.8 432.1 533.4 478.1 565.1 503C570.6 507.3 576.2 510.6 582.1 513.1C604.4 522.8 629.1 521.3 654.2 517.7C674.3 514.8 694.7 510.4 714 509.5C718.7 509.3 723.4 509.2 728.1 509.2C753.6 509.3 779 513 803.2 520.3C854 535.8 899.4 567.7 929.4 612.8C938.6 626.6 946.2 641.5 952.1 657C977.1 722.2 972.9 798.9 938.8 859.6" stroke="#9156FF" stroke-width="2" stroke-miterlimit="10"/>
<path d="M-122.9 -39.6C-83.6999 -75.5 -16.0999 -76.1 24.8001 -39.9C58.2001 -10.5 71.5001 35.2 93.9001 74C100.3 85 107.3 95.5 115.8 104.9C152.6 145.6 208.2 157.7 257.5 158.1C291.2 158.3 324.1 154.2 356.8 153.4C372 153 387.1 153.5 402.5 155.7C422 158.5 442.5 164.9 462.2 174.4C491.5 188.7 518.1 209.1 531.9 237.8C535.5 245.2 538.1 252.8 539.9 260.5C548.5 296.1 540.7 335.3 535.4 373.8C534.6 379.9 533.8 386.2 533.3 392.6C529.8 435.3 533.2 480.8 563.2 506.2C568.3 510.6 573.7 514 579.3 516.7C600.5 527.1 624.3 526.7 648.8 524.2C668.5 522.1 688.9 518.2 708.2 517.4C712.9 517.2 717.6 517.1 722.3 517.1C747.7 517.2 773 520.5 797.2 527.6C847.9 542.4 893.5 573.9 923.7 618.6C933 632.3 940.6 647 946.6 662.5C971.9 727.4 967.8 804 933.5 864.4" stroke="#9158FF" stroke-width="2" stroke-miterlimit="10"/>
<path d="M-111.7 -46.9C-71.9 -81 -5.19995 -80.8 35.8 -45.1C69.3 -16 83.5 28.9 105.8 67.5C112.2 78.5 119.2 89 127.5 98.4C163.6 139.4 216.9 153.4 263.6 156.2C295.5 158 326.4 155.8 356.9 156.6C371.1 156.9 385.2 158.1 399.6 161C417.9 164.7 437.4 171.8 456.6 181.7C485.3 196.6 512.1 216.3 526.7 244C530.5 251.1 533.3 258.4 535.4 265.8C545.3 300.2 539.3 338.6 535 377C534.3 383.1 533.7 389.3 533.3 395.7C530.5 438.3 532.7 483.3 560.8 509.3C565.6 513.8 570.7 517.3 575.9 520.2C595.9 531.2 618.8 532.1 642.9 530.5C662.2 529.3 682.6 525.8 701.8 525.1C706.5 524.9 711.2 524.9 715.8 524.9C741.2 525 766.4 528 790.5 534.7C841.2 548.8 887 579.9 917.3 624.1C926.6 637.7 934.4 652.3 940.4 667.7C965.9 732.2 961.9 808.8 927.6 869" stroke="#905AFF" stroke-width="2" stroke-miterlimit="10"/>
<path d="M-100.5 -54.2C-60.2 -86.5 5.70001 -85.6 46.9 -50.3C80.5 -21.5 95.5 22.6 117.9 61.1C124.3 72.1 131.2 82.5 139.4 92C174.9 133.3 225.8 149.2 269.9 154.4C300.1 157.8 329 157.6 357.2 159.8C370.4 160.8 383.4 162.6 397 166.2C414.2 170.7 432.6 178.6 451.4 188.9C479.5 204.4 506.6 223.5 521.9 250.1C525.9 257 528.9 264 531.3 271.1C542.5 304.3 538.4 342 535 380.2C534.4 386.2 534 392.4 533.7 398.8C531.6 441.4 532.5 485.8 558.9 512.4C563.4 516.9 568.2 520.7 573.1 523.7C592 535.3 614 537.4 637.5 536.9C656.3 536.5 676.8 533.5 696 533C700.7 532.9 705.4 532.8 710 532.8C735.3 533 760.4 535.5 784.6 541.9C835.3 555.3 881.2 585.9 911.7 629.8C921.1 643.3 928.9 657.8 935 673.1C960.8 737.3 956.8 813.7 922.4 873.7" stroke="#905DFF" stroke-width="2" stroke-miterlimit="10"/>
<path d="M-89.2999 -61.5C-48.3999 -92.1 16.6001 -90.3 57.9001 -55.5C91.6001 -27.1 107.5 16.3 129.9 54.6C136.3 65.5 143.2 75.9 151.2 85.5C186 127.2 234.7 145 276.2 152.5C304.6 157.6 331.5 159.2 357.6 163C369.8 164.7 381.8 167.2 394.4 171.5C410.4 176.9 427.7 185.5 446.1 196.2C473.5 212.3 500.9 230.8 517.1 256.3C521.3 262.9 524.6 269.6 527.3 276.4C539.8 308.4 537.6 345.3 535.1 383.4C534.7 389.4 534.4 395.6 534.1 401.9C532.7 444.4 532.4 488.3 557 515.4C561.2 520 565.6 523.9 570.3 527.1C588.1 539.3 609.1 542.6 632.2 543.1C650.6 543.5 671.1 541 690.3 540.6C695 540.5 699.6 540.5 704.3 540.5C729.5 540.7 754.6 542.9 778.7 548.9C829.3 561.6 875.4 591.8 906.2 635.3C915.7 648.7 923.5 663.1 929.7 678.3C955.8 742.2 951.8 818.5 917.3 878.2" stroke="#8F5FFF" stroke-width="2" stroke-miterlimit="10"/>
<path d="M-78.2 -68.8C-36.7999 -97.6 27.4 -95.1 68.8 -60.7C102.7 -32.6 119.4 10 141.8 48.2C148.2 59.1 155 69.5 162.9 79.1C197 121.1 243.4 140.8 282.3 150.6C308.9 157.4 333.7 160.9 357.7 166.1C368.9 168.6 379.9 171.7 391.5 176.6C406.3 182.9 422.6 192.2 440.5 203.4C467.3 220.2 494.9 238 511.9 262.4C516.3 268.7 519.8 275.2 522.8 281.7C536.6 312.5 536.3 348.7 534.8 386.5C534.6 392.5 534.3 398.6 534.2 404.9C533.4 447.3 531.9 490.7 554.7 518.4C558.6 523.1 562.7 527.1 567.1 530.5C583.8 543.4 603.9 547.9 626.4 549.4C644.4 550.6 664.8 548.6 684 548.4C688.7 548.3 693.3 548.3 697.9 548.4C723 548.6 748 550.4 772.1 556.1C822.7 568.1 869 597.9 899.9 641C909.4 654.3 917.4 668.6 923.6 683.7C949.9 747.2 946 823.5 911.4 882.9" stroke="#8F61FF" stroke-width="2" stroke-miterlimit="10"/>
<path d="M-67 -76.2C-25 -103.2 38.4 -99.9 79.8 -66C113.8 -38.3 131.3 3.6 153.8 41.6C160.2 52.4 167 62.9 174.7 72.5C208.2 114.9 252.2 136.4 288.6 148.6C313.4 157 336.2 162.4 358 169.2C368.2 172.4 378.2 176.2 388.9 181.8C402.5 188.9 417.7 199 435.2 210.6C461.4 228 489.3 245.2 507 268.5C511.6 274.5 515.4 280.7 518.6 287C533.8 316.6 535.3 352 534.7 389.7C534.6 395.6 534.5 401.8 534.5 408C534.4 450.4 531.7 493.1 552.7 521.5C556.3 526.3 560.1 530.4 564.2 534C579.7 547.5 598.9 553.2 621 555.7C638.6 557.7 659 556.2 678.2 556.1C682.9 556.1 687.5 556.1 692.1 556.1C717.2 556.3 742.1 557.8 766.1 563.2C816.7 574.5 863.1 603.9 894.2 646.6C903.8 659.7 911.8 674 918.2 689C944.8 752.2 940.9 828.4 906.2 887.5" stroke="#8E63FF" stroke-width="2" stroke-miterlimit="10"/>
<path d="M-55.7999 -83.5C-13.2999 -108.8 49.3001 -104.7 90.9001 -71.2C125 -43.8 143.4 -2.7 165.9 35.1C172.3 45.9 179 56.4 186.5 66.1C219.3 108.8 261 132.2 294.8 146.8C317.8 156.8 338.5 164.1 358.3 172.4C367.4 176.2 376.5 180.8 386.2 187C398.6 195 412.8 205.8 429.9 217.8C455.5 235.8 483.6 252.4 502.2 274.6C507 280.4 511 286.2 514.5 292.2C531 320.7 534.4 355.2 534.7 392.8C534.8 398.7 534.8 404.8 534.8 411C535.3 453.3 531.5 495.5 550.6 524.5C553.8 529.4 557.4 533.7 561.2 537.4C575.6 551.5 593.9 558.4 615.4 562C632.6 564.8 653 563.8 672.2 563.8C676.9 563.8 681.5 563.8 686 563.9C711 564.1 735.8 565.2 759.9 570.3C810.4 581 857 609.9 888.4 652.1C898.1 665.1 906.2 679.3 912.6 694.2C939.5 757.1 935.6 833.1 900.9 892" stroke="#8E65FF" stroke-width="2" stroke-miterlimit="10"/>
<path d="M-44.6 -90.8C-1.49998 -114.3 60.2 -109.4 101.9 -76.4C136.1 -49.4 155.4 -9 177.9 28.7C184.3 39.5 191 49.9 198.3 59.7C230.4 102.7 269.8 128 301.1 145C322.4 156.6 340.9 165.8 358.6 175.6C366.7 180.1 374.8 185.3 383.5 192.3C394.7 201.2 407.8 212.7 424.5 225.1C449.4 243.7 477.9 259.7 497.2 280.7C502.2 286.2 506.5 291.8 510.2 297.5C528.1 324.8 533.2 358.6 534.5 396C534.7 401.9 534.8 407.9 535 414.2C536.2 456.5 531.1 498.1 548.5 527.7C551.4 532.7 554.6 537.1 558.2 541C571.5 555.7 588.9 563.8 609.8 568.5C626.6 572.2 647 571.6 666.2 571.8C670.8 571.8 675.5 571.9 680 571.9C704.9 572.2 729.7 572.9 753.7 577.6C804.2 587.6 851 616 882.5 657.9C892.2 670.8 900.4 684.9 906.9 699.7C934.1 762.2 930.2 838.2 895.4 896.8" stroke="#8D67FF" stroke-width="2" stroke-miterlimit="10"/>
<path d="M-33.4999 -98.1C10.1001 -119.8 71.0001 -114.2 112.8 -81.6C147.1 -54.9 167.2 -15.3 189.8 22.2C196.3 32.9 202.8 43.4 210 53.2C241.5 96.6 278.5 123.7 307.2 143.1C326.7 156.3 343.1 167.3 358.7 178.8C365.7 184 372.9 189.9 380.7 197.5C390.7 207.2 402.8 219.5 419 232.3C443.3 251.6 472 266.8 492.1 286.8C497.3 292 501.9 297.3 505.9 302.7C525.2 328.8 532.1 361.8 534.4 399.1C534.7 404.9 535 411 535.3 417.2C537.1 459.4 530.9 500.4 546.4 530.6C549 535.7 551.9 540.2 555.2 544.3C567.3 559.6 583.8 569 604.3 574.6C620.7 579.1 641.1 579 660.2 579.3C664.8 579.4 669.4 579.4 673.9 579.5C698.7 579.8 723.4 580.1 747.4 584.5C797.9 593.8 844.8 621.8 876.5 663.3C886.3 676.1 894.6 690 901.1 704.8C928.5 767 924.7 842.9 889.8 901.2" stroke="#8D69FF" stroke-width="2" stroke-miterlimit="10"/>
<path d="M-22.2999 -105.4C21.9001 -125.4 81.9001 -118.9 123.8 -86.8C158.2 -60.5 179.2 -21.6 201.8 15.8C208.3 26.5 214.8 36.9 221.8 46.8C252.6 90.5 287.4 119.4 313.4 141.3C331.1 156.2 345.5 168.9 359 182C365 187.8 371.1 194.5 378 202.8C386.9 213.4 397.9 226.4 413.6 239.6C437.3 259.5 466.3 274.1 487.2 293C492.6 297.9 497.4 303 501.7 308.1C522.4 333 531.1 365.3 534.3 402.4C534.8 408.2 535.2 414.2 535.5 420.4C538 462.6 530.6 503 544.3 533.8C546.6 538.9 549.2 543.6 552.2 547.9C563.2 563.8 578.8 574.4 598.7 581.1C614.7 586.4 635 586.8 654.2 587.3C658.8 587.4 663.4 587.5 667.9 587.5C692.7 587.8 717.3 587.8 741.3 591.8C791.7 600.4 838.8 628 870.7 669.1C880.6 681.8 888.9 695.6 895.5 710.3C923.2 772.2 919.4 847.9 884.4 906" stroke="#8C6BFF" stroke-width="2" stroke-miterlimit="10"/>
<path d="M-11.1 -112.7C33.6 -130.9 92.8 -123.7 134.9 -92C169.5 -66 191.3 -27.9 213.9 9.29998C220.4 19.9 226.8 30.4 233.7 40.3C263.8 84.3 296.3 115.1 319.8 139.4C335.7 155.9 348 170.4 359.4 185.2C364.4 191.6 369.5 199.1 375.5 208C383.2 219.5 393.1 233.2 408.5 246.8C431.6 267.3 460.9 281.3 482.5 299.1C488.2 303.8 493.2 308.5 497.7 313.4C519.8 337.1 530.3 368.6 534.4 405.6C535 411.4 535.5 417.3 536 423.5C539.2 465.6 530.6 505.4 542.4 536.9C544.4 542.1 546.7 546.9 549.4 551.4C559.3 567.8 573.9 579.7 593.4 587.4C609 593.5 629.3 594.4 648.5 595C653.1 595.1 657.7 595.2 662.2 595.3C686.9 595.6 711.4 595.2 735.4 599C785.8 606.9 833.1 634.1 865.2 674.8C875.1 687.4 883.5 701.1 890.2 715.7C918.2 777.2 914.4 852.9 879.4 910.7" stroke="#8C6EFF" stroke-width="2" stroke-miterlimit="10"/>
<path d="M0.100037 -120C45.4 -136.4 103.8 -128.4 145.9 -97.2C180.6 -71.5 203.2 -34.2 225.9 2.79999C232.4 13.4 238.8 23.8 245.5 33.8C275 78.2 305.1 110.8 326 137.5C340.2 155.6 350.3 171.8 359.6 188.3C363.6 195.4 367.7 203.6 372.7 213.2C379.2 225.6 388.1 240 403 254C425.4 275.1 455 288.5 477.4 305.2C483.3 309.6 488.5 314.1 493.3 318.6C516.8 341 529 371.8 534.1 408.6C534.9 414.3 535.5 420.3 536.1 426.4C540 468.4 530.2 507.7 540.2 539.8C541.9 545.1 543.8 550 546.2 554.7C555 571.7 568.7 584.9 587.6 593.6C602.7 600.5 623.1 601.9 642.2 602.7C646.8 602.9 651.4 603 655.8 603C680.4 603.3 704.9 602.6 728.8 606C779.2 613.2 826.6 640 858.9 680.3C868.9 692.8 877.4 706.4 884.1 721C912.4 782.2 908.7 857.8 873.5 915.3" stroke="#8B70FF" stroke-width="2" stroke-miterlimit="10"/>
<path d="M11.2001 -127.3C57.0001 -141.9 114.6 -133.2 156.8 -102.4C191.6 -77.1 215.1 -40.5 237.8 -3.60001C244.3 6.99999 250.6 17.4 257.2 27.4C286 72.1 313.8 106.6 332.2 135.7C344.6 155.4 352.8 173.3 359.9 191.6C362.9 199.2 366 208.3 370 218.5C375.3 231.8 383.1 247 397.6 261.3C419.4 283.1 449.3 295.7 472.4 311.4C478.5 315.5 484 319.7 489 324C513.9 345.2 527.9 375.3 533.9 411.9C534.8 417.6 535.6 423.5 536.3 429.6C540.8 471.6 529.9 510.2 538 542.9C539.3 548.3 541 553.3 543.1 558.2C550.8 575.8 563.6 590.2 582 599.9C596.7 607.7 617.1 609.5 636.2 610.4C640.8 610.6 645.4 610.7 649.8 610.8C674.3 611.2 698.7 610 722.7 613.1C773 619.6 820.6 645.9 853.1 685.8C863.2 698.1 871.7 711.7 878.5 726.2C907 787.1 903.4 862.6 868.1 919.8" stroke="#8B72FF" stroke-width="2" stroke-miterlimit="10"/>
<path d="M22.4 -134.6C68.8 -147.5 125.5 -137.9 167.8 -107.6C202.7 -82.6 227.1 -46.8 249.8 -10.1C256.3 0.399994 262.6 10.9 268.9 21C297 66 322.6 102.3 338.3 133.9C348.9 155.2 355.1 174.8 360 194.8C362 203.1 364 212.9 367.2 223.8C371.3 237.9 378.1 253.9 392.2 268.6C413.4 291 443.5 303 467.5 317.6C473.8 321.4 479.6 325.3 484.9 329.3C511.2 349.3 526.9 378.6 534 415.1C535.1 420.8 536 426.7 536.7 432.7C541.9 474.6 529.8 512.7 536.1 546C537.1 551.5 538.5 556.7 540.3 561.7C546.9 579.9 558.7 595.5 576.6 606.3C590.9 614.9 611.2 617.2 630.4 618.2C635 618.4 639.5 618.6 643.9 618.6C668.3 619 692.6 617.5 716.6 620.2C766.9 626 814.7 651.9 847.3 691.4C857.4 703.6 866.1 717.1 872.9 731.5C901.7 792 898.1 867.4 862.7 924.4" stroke="#8A74FF" stroke-width="2" stroke-miterlimit="10"/>
<path d="M33.6 -141.9C80.5 -153 136.4 -142.7 178.9 -112.8C213.9 -88.2 239.1 -53.1 261.8 -16.5C268.3 -6.00001 274.5 4.4 280.7 14.6C308.2 60 331.4 98.1 344.6 132.1C353.5 155 357.8 176.3 360.3 198.1C361.3 207 362.3 217.6 364.5 229.1C367.4 244.1 373.1 260.8 386.8 276C407.4 299 437.8 310.4 462.5 323.9C469 327.5 475 331.1 480.6 334.8C508.3 353.5 525.8 382.1 533.8 418.5C535 424.1 536 430 536.9 436.1C542.8 478 529.5 515.4 534 549.4C534.7 554.9 535.8 560.3 537.3 565.5C542.8 584.3 553.7 601.1 571.1 612.9C585 622.3 605.3 625.1 624.4 626.3C629 626.6 633.5 626.7 637.9 626.8C662.3 627.2 686.5 625.3 710.4 627.7C760.7 632.8 808.6 658.3 841.5 697.4C851.7 709.5 860.4 722.9 867.3 737.2C896.4 797.4 892.8 872.7 857.3 929.4" stroke="#8A76FF" stroke-width="2" stroke-miterlimit="10"/>
<path d="M44.8 -149.2C92.3 -158.5 147.3 -147.4 189.9 -118C225.1 -93.7 251.1 -59.4 273.8 -23C280.3 -12.6 286.5 -2.10001 292.5 8.09999C319.3 53.8 340.2 93.8 350.8 130.2C357.9 154.7 360.3 177.8 360.5 201.2C360.6 210.7 360.5 222.1 361.8 234.3C363.5 250.2 368.2 267.6 381.4 283.2C401.3 306.8 432.1 317.6 457.5 330C464.2 333.3 470.5 336.6 476.3 340.1C505.5 357.6 524.7 385.5 533.6 421.7C535 427.3 536.1 433.1 537.1 439.2C543.8 481 529.2 517.9 531.8 552.5C532.2 558.1 533 563.6 534.2 569C538.6 588.4 548.5 606.5 565.4 619.3C578.9 629.5 599.2 632.8 618.3 634.1C622.9 634.4 627.4 634.6 631.8 634.6C656.1 635 680.2 632.8 704.2 634.9C754.4 639.3 802.5 664.4 835.6 703.1C845.9 715.1 854.7 728.4 861.6 742.6C891 802.4 887.4 877.7 851.9 934.1" stroke="#8978FF" stroke-width="2" stroke-miterlimit="10"/>
<path d="M56 -156.5C104 -164.1 158.3 -152.2 200.9 -123.2C236.2 -99.3 263.1 -65.7 285.8 -29.4C292.3 -19 298.4 -8.60001 304.3 1.69999C330.4 47.8 349.1 89.5 357 128.4C362.3 154.5 362.9 179.4 360.8 204.5C360 214.6 358.7 226.8 359.1 239.6C359.6 256.4 363.3 274.5 376 290.5C395.3 314.8 426.3 324.8 452.6 336.2C459.5 339.2 466.1 342.2 472.1 345.4C502.7 361.6 523.6 388.8 533.5 424.9C535 430.5 536.3 436.3 537.3 442.3C544.6 484 528.9 520.3 529.7 555.5C529.8 561.2 530.3 566.8 531.2 572.3C534.5 592.3 543.5 611.6 559.9 625.4C573 636.4 593.3 640.2 612.4 641.7C617 642 621.5 642.2 625.8 642.3C650 642.8 674.1 640.1 698 641.9C748.2 645.6 796.5 670.3 829.7 708.6C840 720.5 848.9 733.6 855.9 747.8C885.5 807.3 882 882.5 846.4 938.6" stroke="#897AFF" stroke-width="2" stroke-miterlimit="10"/>
<path d="M67.1 -163.9C115.7 -169.7 169.1 -157.1 211.8 -128.5C247.2 -104.9 274.9 -72.1 297.7 -36C304.3 -25.6 310.3 -15.2 316 -4.89999C341.5 41.5 357.8 85.1 363.2 126.4C366.8 154.1 365.4 180.8 361 207.5C359.2 218.3 356.9 231.2 356.3 244.7C355.5 262.4 358.2 281.2 370.6 297.6C389.3 322.5 420.6 331.9 447.6 342.2C454.7 344.9 461.5 347.7 467.8 350.6C499.8 365.5 522.4 392.1 533.3 427.9C535 433.4 536.4 439.2 537.5 445.2C545.5 486.9 528.7 522.6 527.5 558.4C527.3 564.2 527.5 569.9 528.1 575.6C530.4 596.1 538.4 616.7 554.2 631.6C566.9 643.5 587.2 647.8 606.2 649.3C610.8 649.7 615.3 649.9 619.6 650C643.7 650.5 667.7 647.5 691.6 648.9C741.8 651.9 790.2 676.1 823.7 714C834.1 725.8 843 738.8 850.2 752.9C880.1 812.1 876.6 887.1 840.9 943" stroke="#887CFF" stroke-width="2" stroke-miterlimit="10"/>
<path d="M78.3 -171.2C127.4 -175.2 180 -161.8 222.9 -133.7C258.4 -110.5 287 -78.4 309.8 -42.5C316.4 -32.2 322.3 -21.8 327.9 -11.4C352.7 35.3 366.9 80.8 369.5 124.5C371.4 153.8 368.1 182.4 361.3 210.6C358.6 222 355.2 235.7 353.7 249.8C351.7 268.3 353.4 287.9 365.3 304.7C383.4 330.2 415 338.9 442.7 348.2C450.1 350.6 457.1 353.1 463.6 355.7C497 369.3 521.4 395.2 533.3 430.9C535.1 436.4 536.6 442.1 537.9 448.1C546.6 489.7 528.6 524.8 525.6 561.3C525.1 567.2 524.9 573 525.3 578.9C526.5 600 533.5 621.9 548.9 637.7C561.2 650.4 581.4 655.2 600.5 656.9C605 657.3 609.5 657.5 613.8 657.6C637.9 658.1 661.8 654.7 685.7 655.8C735.8 658.2 784.4 681.9 818.1 719.4C828.6 731.1 837.6 744 844.8 758C875 816.8 871.5 891.8 835.7 947.4" stroke="#887FFF" stroke-width="2" stroke-miterlimit="10"/>
<path d="M89.5 -178.5C139.2 -180.7 190.9 -166.5 233.9 -138.9C269.5 -116 299 -84.7 321.8 -48.9C328.4 -38.6 334.3 -28.2 339.7 -17.8C363.8 29.3 375.7 76.6 375.8 122.7C375.9 153.6 370.7 184 361.7 213.9C358 226 353.5 240.4 351.1 255.2C347.9 274.6 348.5 294.9 360 312.1C377.4 338.2 409.3 346.3 437.9 354.5C445.5 356.7 452.8 358.8 459.6 361.2C494.5 373.5 520.6 398.8 533.4 434.3C535.4 439.8 537 445.5 538.3 451.4C547.7 493 528.6 527.5 523.6 564.6C522.8 570.6 522.3 576.5 522.4 582.6C522.5 604.3 528.6 627.4 543.4 644.3C555.2 657.8 575.5 663.1 594.6 664.9C599.1 665.3 603.6 665.6 607.9 665.7C631.9 666.2 655.7 662.5 679.6 663.2C729.7 664.9 778.5 688.2 812.3 725.3C822.8 736.8 831.9 749.7 839.2 763.6C869.6 822.1 866.2 897 830.4 952.4" stroke="#8781FF" stroke-width="2" stroke-miterlimit="10"/>
<path d="M100.7 -185.8C151 -186.3 201.8 -171.3 244.9 -144.1C280.6 -121.5 310.9 -91 333.8 -55.4C340.4 -45.2 346.2 -34.8 351.5 -24.2C375 23.2 384.5 72.4 382 120.9C380.3 153.4 373.2 185.7 361.9 217.1C357.3 229.9 351.7 244.9 348.3 260.4C343.9 280.7 343.5 301.7 354.5 319.3C371.3 346.1 403.5 353.5 432.8 360.6C440.6 362.5 448.1 364.3 455.2 366.5C491.5 377.5 519.3 402.1 533.1 437.5C535.2 442.9 537 448.6 538.4 454.5C548.4 496 528.3 530 521.4 567.7C520.3 573.7 519.5 579.9 519.3 586.1C518.4 608.4 523.4 632.7 537.8 650.7C549.2 665 569.5 670.8 588.5 672.7C593 673.2 597.5 673.4 601.8 673.5C625.7 674 649.5 669.9 673.3 670.4C723.4 671.4 772.3 694.3 806.3 731C816.9 742.4 826.1 755.2 833.4 769C864.1 827.2 860.7 902 824.8 957.1" stroke="#8783FF" stroke-width="2" stroke-miterlimit="10"/>
<path d="M111.8 -193.1C204.8 -190.7 295.2 -140 345.7 -61.9C402.1 25.4 400.5 127.1 362 220.2C349.2 251.3 330.3 294.8 349 326.5C369.5 361.2 416 362.8 450.8 371.7C494.2 382.9 527 413 538.5 457.5C550.9 505.6 520.2 542.8 516.1 589.4C514.1 612.3 518.2 637.8 532 656.8C545.6 675.5 573.4 680.6 595.5 681.2C619.3 681.8 643 677.3 666.9 677.4C732.5 677.8 796.6 716.4 827.5 774.2C858.5 832 855.1 906.7 819.1 961.6" stroke="#8685FF" stroke-width="2" stroke-miterlimit="10"/>
<path d="M103 -189C150.5 -188.2 197.4 -175.6 239.1 -153.1C279.9 -131.1 315.8 -99.6 341.5 -60.8C361.1 -31.3 373.9 0.200005 380.3 32.7C386.4 63.4 386.8 94.7 382.4 125.6C379.1 148.8 373 171.7 364.8 194.3C361.4 203.7 357.6 213 353.5 222.3C348.4 233.7 342.5 246.8 338.1 260.4C330.5 283.6 326.8 308.9 338.6 329.2C351.4 351.1 375 360.1 399.2 365.7C413.5 369 428 371.1 441.1 374.1C452.9 376.9 464 380.9 474.1 386.2C496.9 398.2 515 416.5 525.8 440.8C527.9 445.4 529.7 450.3 531.2 455.3C539.4 482.6 533.3 507 525.9 531.9C520.6 549.6 514.7 567.4 513.1 586.9C513 587.6 513 588.3 512.9 589C511.4 611.5 515.4 636.3 528.9 654.8C538.1 667.4 553.6 674 569.5 677.1C577.7 678.7 586.1 679.3 593.8 679.3C602.5 679.4 611.2 678.7 619.9 677.8C635.4 676.2 650.7 673.9 666.1 673.4C684.3 672.8 702.4 675 719.8 679.6C751.9 688.1 781.9 705.2 805.1 729.5C815.2 740 823.9 751.9 831 764.7C833.7 769.7 836.2 774.8 838.4 780C862.5 836.3 856.5 904.9 822.3 955.7" stroke="#8B88FB" stroke-width="2" stroke-miterlimit="10"/>
<path d="M94.1 -185C142.2 -184.6 189.7 -172.9 232.2 -151.2C273.7 -129.9 310.8 -98.8 337.2 -60C357.3 -30.5 370.5 1.19999 376.7 34.4C382.6 65.5 382.4 97.2 377 128.1C372.9 151.3 366 174 357 196.3C353.3 205.6 349.2 214.8 344.8 224C339.3 235.4 333.1 248.4 328.4 262C320.4 285.1 316.1 310.9 328 331.5C340.7 353.6 364.7 362.8 388.9 368.2C403.3 371.4 417.9 373.3 431.1 376C443 378.5 454.1 382.2 464.4 387C487.5 398 506 415.2 517.7 438.5C520 442.9 522 447.6 523.7 452.5C532.9 479 528.2 503.3 521.6 528.3C516.9 546.1 511.4 564.1 509.9 583.6C509.8 584.3 509.8 585 509.8 585.7C508.4 608.3 512.2 633.4 525.8 652C535.2 664.9 551 671.7 567.3 674.6C575.7 676.1 584.2 676.7 592.1 676.6C601 676.5 609.9 675.7 618.7 674.6C634.4 672.7 649.9 669.9 665.5 668.8C683.9 667.5 702.1 668.8 719.7 672.6C752.2 679.6 783.3 695.1 807.6 719.2C818.1 729.6 827.2 741.6 834.6 754.6C837.4 759.6 840 764.8 842.3 770.1C867.4 827.3 861.1 897.8 825.6 949.2" stroke="#8F8BF6" stroke-width="2" stroke-miterlimit="10"/>
<path d="M85.2001 -180.9C133.8 -180.9 182 -170.1 225.3 -149.1C267.6 -128.6 305.7 -97.8 332.9 -59C353.5 -29.6 367 2.49998 373.1 36.4C378.8 67.9 377.9 100 371.6 130.9C366.8 154.1 359 176.5 349.2 198.6C345.1 207.8 340.8 217 336.1 226.1C330.2 237.5 323.7 250.4 318.7 264.1C310.3 287.1 305.5 313.5 317.3 334.3C330 356.5 354.3 366 378.6 371.2C393.1 374.3 407.8 376 421.1 378.4C433.1 380.6 444.3 383.9 454.6 388.4C478 398.5 497 414.4 509.6 436.8C512 441.1 514.2 445.6 516.1 450.4C526.3 476.1 523 500.3 517.2 525.4C513.1 543.3 508 561.5 506.7 581.1C506.7 581.8 506.6 582.5 506.6 583.2C505.4 605.9 508.8 631.2 522.6 650C532.3 663.2 548.4 670.1 565 673C573.6 674.5 582.2 674.9 590.3 674.7C599.4 674.5 608.4 673.5 617.3 672.1C633.2 669.8 648.9 666.5 664.6 664.8C683.1 662.8 701.5 663.3 719.4 666.2C752.4 671.6 784.5 685.6 809.9 709.5C820.8 719.8 830.3 731.9 838 745.1C841 750.2 843.6 755.5 846 760.8C872.1 819 865.5 891.3 828.7 943.2" stroke="#948DF2" stroke-width="2" stroke-miterlimit="10"/>
<path d="M76.3 -176.8C125.5 -177.1 174.2 -167.3 218.4 -147.1C261.4 -127.3 300.7 -96.9 328.7 -58.1C349.8 -28.7 363.7 3.7 369.5 38.2C375 70.1 373.5 102.6 366.2 133.4C360.7 156.6 351.9 178.7 341.5 200.6C337.1 209.7 332.4 218.8 327.5 227.9C321.3 239.3 314.3 252.1 309.1 265.8C300.3 288.7 294.9 315.6 306.8 336.7C319.4 359 344.1 368.8 368.4 373.8C383 376.8 397.7 378.3 411.2 380.4C423.2 382.3 434.5 385.3 445 389.3C468.6 398.4 488.1 413.2 501.6 434.6C504.2 438.7 506.6 443.1 508.7 447.7C519.8 472.5 517.9 496.7 513 521.9C509.5 539.9 504.7 558.3 503.6 578C503.6 578.7 503.5 579.4 503.5 580.1C502.4 603 505.6 628.5 519.4 647.3C529.3 660.8 545.7 667.9 562.6 670.7C571.3 672.2 580.2 672.5 588.4 672.1C597.6 671.7 606.8 670.5 615.8 669C631.9 666.3 647.8 662.5 663.6 660.3C682.3 657.6 700.8 657.2 719 659.3C752.5 663.2 785.6 675.6 812 699.2C823.4 709.4 833.2 721.6 841.2 735C844.3 740.2 847.1 745.5 849.5 751C876.5 810.2 869.7 884.2 831.6 936.8" stroke="#9990EE" stroke-width="2" stroke-miterlimit="10"/>
<path d="M67.4 -172.8C117.1 -173.5 166.5 -164.6 211.5 -145.1C255.2 -126 295.7 -96 324.4 -57.2C346 -27.8 360.3 4.8 365.9 40C371.2 72.3 369.1 105.2 360.8 136C354.5 159.2 344.9 181.1 333.7 202.7C329 211.7 324 220.7 318.7 229.7C312.1 241.1 304.8 253.8 299.3 267.5C290.2 290.3 284.1 317.7 296 339.1C308.5 361.5 333.6 371.5 357.9 376.5C372.5 379.4 387.4 380.7 401 382.5C413.1 384.1 424.5 386.8 435.1 390.4C459 398.6 479 412.1 493.3 432.6C496.1 436.5 498.7 440.7 500.9 445.2C513 469.2 512.4 493.3 508.4 518.6C505.5 536.7 501.1 555.3 500.1 575.1C500.1 575.8 500 576.5 500 577.2C499.1 600.2 502 625.9 515.9 644.9C526 658.6 542.7 666 560 668.7C568.9 670.1 577.9 670.4 586.3 669.9C595.7 669.4 605 668 614.2 666.2C630.6 663.1 646.6 658.9 662.6 656C681.5 652.7 700.1 651.4 718.6 652.7C752.6 655 786.8 666 814.2 689.3C826 699.4 836.2 711.7 844.5 725.2C847.7 730.4 850.6 735.9 853.2 741.4C881.2 801.5 874.1 877.4 834.7 930.5" stroke="#9D93E9" stroke-width="2" stroke-miterlimit="10"/>
<path d="M58.5 -168.7C108.8 -169.8 158.7 -161.8 204.6 -143.1C249.1 -124.8 290.6 -95.2 320.1 -56.2C342.2 -26.8 356.8 6.09999 362.3 41.9C367.3 74.6 364.6 107.9 355.4 138.7C348.4 161.9 337.9 183.5 325.9 204.9C320.9 213.8 315.6 222.7 310 231.7C303 243 295.4 255.8 289.6 269.5C280.1 292.1 273.5 320.1 285.4 341.7C297.8 364.2 323.3 374.5 347.7 379.3C362.4 382.1 377.4 383.2 391.1 384.8C403.2 386.2 414.7 388.4 425.5 391.6C449.6 398.8 470.2 411.2 485.4 430.7C488.3 434.5 491.1 438.5 493.6 442.9C506.6 466.1 507.5 490.1 504.3 515.5C502 533.7 498 552.5 497.1 572.4C497.1 573.1 497 573.8 497 574.5C496.2 597.6 498.8 623.6 512.8 642.6C523.2 656.6 540.2 664.1 557.8 666.8C566.9 668.2 576 668.3 584.6 667.7C594.2 667 603.6 665.5 612.9 663.5C629.5 660 645.7 655.3 661.8 651.9C680.8 647.9 699.7 645.8 718.3 646.2C752.7 646.9 788 656.4 816.4 679.5C828.7 689.5 839.2 701.9 847.8 715.6C851.1 720.9 854.1 726.4 856.8 732.1C885.8 793.2 878.4 870.9 837.7 924.6" stroke="#A296E5" stroke-width="2" stroke-miterlimit="10"/>
<path d="M49.7001 -164.7C100.5 -166.2 151.1 -159.1 197.7 -141.1C242.9 -123.5 285.6 -94.3 315.8 -55.3C338.4 -25.9 353.3 7.29997 358.7 43.8C363.5 76.9 360.2 110.6 350.1 141.4C342.4 164.6 331 186 318.2 207.1C312.8 215.9 307.2 224.8 301.4 233.6C294 244.9 286.1 257.6 280.1 271.3C270.2 293.8 263 322.3 274.9 344.2C287.3 366.8 313.1 377.4 337.5 382C352.3 384.8 367.3 385.6 381.2 386.9C393.4 388 405 389.9 415.8 392.7C440.2 399 461.2 410.1 477.3 428.7C480.4 432.3 483.4 436.2 486 440.4C500 462.7 502.3 486.7 499.9 512.2C498.2 530.5 494.6 549.5 493.8 569.5C493.8 570.2 493.7 570.9 493.7 571.6C493 594.8 495.4 621.1 509.5 640.2C520.1 654.5 537.4 662.2 555.4 664.8C564.6 666.1 574 666.2 582.7 665.5C592.4 664.7 602 662.9 611.5 660.7C628.3 656.8 644.7 651.6 661 647.6C680.2 642.9 699.2 639.9 718.1 639.5C753 638.7 789.3 646.6 818.8 669.5C831.5 679.4 842.4 691.9 851.3 705.8C854.7 711.2 857.8 716.8 860.6 722.5C890.6 784.6 882.9 864 840.9 918.4" stroke="#A799E1" stroke-width="2" stroke-miterlimit="10"/>
<path d="M40.8 -160.6C92.2001 -162.5 143.4 -156.4 190.8 -139.1C236.8 -122.2 280.6 -93.4 311.5 -54.4C334.7 -25.1 349.9 8.5 355 45.6C359.6 79.1 355.7 113.2 344.6 144C336.1 167.2 323.9 188.3 310.3 209.2C304.6 217.9 298.7 226.7 292.6 235.5C284.8 246.8 276.6 259.4 270.3 273.2C260 295.6 252.3 324.6 264.1 346.8C276.4 369.5 302.5 380.4 327.1 384.8C342 387.5 357.1 388.1 371.1 389.1C383.3 389.9 395 391.4 406 393.8C430.6 399.1 452.2 409 469.1 426.7C472.4 430.1 475.6 433.8 478.4 437.9C493.3 459.4 497 483.4 495.5 509C494.4 527.4 491.2 546.5 490.5 566.6C490.5 567.3 490.5 568 490.4 568.8C489.9 592.1 491.9 618.6 506.2 637.9C517 652.5 534.7 660.3 552.9 662.9C562.3 664.2 571.8 664.2 580.7 663.3C590.6 662.3 600.4 660.4 609.9 658C627 653.7 643.5 648.1 659.9 643.5C679.3 638.1 698.4 634.3 717.6 633C753 630.6 790.3 637 820.9 659.7C834 669.5 845.3 682.1 854.5 696.2C858 701.6 861.2 707.3 864.1 713.1C895.1 776.1 887.1 857.4 843.8 912.3" stroke="#AC9CDC" stroke-width="2" stroke-miterlimit="10"/>
<path d="M31.9 -156.5C83.8 -158.8 135.6 -153.6 183.9 -137C230.6 -120.9 275.5 -92.4 307.2 -53.4C330.9 -24.1 346.5 9.79999 351.4 47.5C355.8 81.4 351.2 115.9 339.2 146.6C330 169.8 316.9 190.7 302.6 211.3C296.6 219.9 290.4 228.6 284 237.3C275.8 248.6 267.3 261.1 260.7 274.9C250.1 297.2 241.7 326.8 253.6 349.2C265.8 372.1 292.3 383.2 316.9 387.5C331.9 390.1 347.1 390.6 361.1 391.2C373.4 391.8 385.2 392.9 396.3 394.8C421.2 399.1 443.3 407.9 461.1 424.7C464.5 428 467.9 431.5 470.9 435.4C486.7 456.1 491.9 480 491.2 505.7C490.7 524.2 487.8 543.5 487.3 563.7C487.3 564.4 487.3 565.1 487.3 565.9C486.9 589.3 488.7 616.1 503 635.4C514 650.2 532 658.3 550.6 660.8C560.2 662.1 569.8 661.9 579 660.9C589.1 659.8 599 657.7 608.7 655.1C626 650.4 642.7 644.3 659.2 639.1C678.7 633 698 628.3 717.5 626.2C753.4 622.3 791.8 627.1 823.3 649.5C836.9 659.2 848.5 671.9 858 686.2C861.6 691.7 864.9 697.5 867.9 703.4C899.9 767.4 891.5 850.5 847 906" stroke="#B09ED8" stroke-width="2" stroke-miterlimit="10"/>
<path d="M23.0001 -152.5C75.5001 -155.2 127.9 -150.9 177 -135.1C224.5 -119.7 270.5 -91.6 302.9 -52.5C327.1 -23.2 343.1 10.9 347.8 49.3C352 83.6 346.8 118.5 333.8 149.2C323.9 172.4 309.8 193 294.8 213.4C288.5 221.9 282 230.5 275.3 239.2C266.7 250.5 257.8 262.9 251 276.7C240 298.9 231.1 329 242.9 351.7C255 374.7 281.9 386 306.5 390.2C321.6 392.7 336.8 393 351 393.3C363.4 393.6 375.2 394.4 386.5 395.9C411.6 399.3 434.3 406.8 452.9 422.7C456.5 425.8 460.1 429.1 463.3 433C480 452.8 486.7 476.7 486.8 502.5C486.9 521.1 484.4 540.6 484 560.9C484 561.6 484 562.4 484 563.1C483.7 586.6 485.2 613.6 499.7 633.1C511 648.2 529.2 656.5 548.2 658.9C558 660.1 567.8 659.9 577.1 658.8C587.3 657.5 597.4 655.2 607.2 652.4C624.7 647.3 641.5 640.7 658.3 635C678 628.2 697.4 622.7 717.1 619.8C753.5 614.3 792.9 617.6 825.5 639.8C839.5 649.4 851.6 662.2 861.3 676.7C865 682.3 868.4 688.1 871.5 694.1C904.5 759.1 895.8 843.9 850 900" stroke="#B5A1D4" stroke-width="2" stroke-miterlimit="10"/>
<path d="M14.1 -148.4C67.1 -151.5 120.1 -148.1 170.1 -133C218.3 -118.3 265.5 -90.7 298.7 -51.5C323.4 -22.2 339.7 12.2 344.3 51.2C348.3 85.9 342.5 121.2 328.5 151.9C317.8 175.1 302.9 195.5 287.1 215.6C280.4 224 273.6 232.5 266.7 241.2C257.7 252.4 248.5 264.9 241.4 278.7C230 300.8 220.5 331.4 232.4 354.4C244.5 377.5 271.7 389.1 296.4 393.1C311.6 395.5 326.9 395.4 341.2 395.6C353.6 395.8 365.6 396 376.9 397.1C402.3 399.6 425.5 405.8 444.9 420.8C448.7 423.7 452.4 426.9 455.9 430.6C473.5 449.6 481.6 473.4 482.6 499.3C483.3 518 481.2 537.7 480.9 558.1C480.9 558.8 480.9 559.6 480.9 560.3C480.8 583.9 482 611.2 496.5 630.7C508 646.1 526.6 654.5 545.9 656.8C555.8 658 565.8 657.7 575.3 656.4C585.7 655 595.9 652.5 605.9 649.5C623.6 644.1 640.6 637 657.5 630.6C677.4 623.1 697 616.8 716.9 613C753.7 606 794.2 607.8 827.9 629.7C842.4 639.2 854.8 652.1 864.8 666.8C868.6 672.5 872.1 678.4 875.3 684.4C909.3 750.3 900.3 837 853.1 893.7" stroke="#BAA4CF" stroke-width="2" stroke-miterlimit="10"/>
<path d="M5.20007 -144.4C58.8001 -147.8 112.4 -145.4 163.2 -131.1C212.1 -117.1 260.5 -89.9 294.4 -50.7C319.6 -21.4 336.3 13.3 340.6 53C344.4 88.1 338 123.8 323 154.5C311.6 177.7 295.8 197.8 279.2 217.7C272.2 226 265.1 234.5 257.9 243C248.5 254.2 239 266.6 231.6 280.4C219.8 302.4 209.7 333.5 221.6 356.7C233.6 379.9 261.2 391.8 285.9 395.6C301.2 397.9 316.5 397.8 331 397.6C343.5 397.4 355.5 397.4 367 398.1C392.6 399.6 416.4 404.7 436.7 418.7C440.7 421.4 444.6 424.5 448.2 428C466.7 446.2 476.3 469.9 478.1 495.9C479.4 514.7 477.7 534.6 477.5 555.1C477.5 555.8 477.5 556.6 477.5 557.3C477.5 581.1 478.5 608.5 493.1 628.2C504.8 643.9 523.7 652.5 543.3 654.7C553.4 655.9 563.5 655.5 573.2 654.1C583.8 652.6 594.1 649.9 604.2 646.6C622.2 640.8 639.3 633.2 656.3 626.3C676.3 618.1 696.1 610.9 716.3 606.3C753.6 597.7 795.1 598 829.8 619.7C844.7 629.1 857.5 642.1 867.8 656.9C871.8 662.6 875.4 668.6 878.6 674.8C913.6 741.7 904.3 830.2 855.8 887.5" stroke="#BEA7CB" stroke-width="2" stroke-miterlimit="10"/>
<path d="M-3.59998 -140.3C50.5 -144.1 104.8 -142.6 156.4 -129C206.1 -115.8 255.5 -88.9 290.2 -49.7C315.9 -20.5 333 14.6 337.1 54.9C340.7 90.4 333.6 126.5 317.7 157.2C305.6 180.4 288.9 200.3 271.6 219.9C264.3 228.1 256.8 236.5 249.4 245C239.6 256.2 229.8 268.5 222.1 282.4C210 304.3 199.3 335.9 211.2 359.4C223.1 382.7 251.1 394.9 275.8 398.6C291.2 400.8 306.6 400.5 321.2 400C333.7 399.5 345.9 399.2 357.5 399.4C383.4 400 407.7 403.8 428.8 416.9C432.9 419.5 437 422.4 440.9 425.8C460.3 443.2 471.4 466.8 474.1 492.9C476.1 511.8 474.6 531.9 474.7 552.5C474.7 553.2 474.7 554 474.7 554.7C474.8 578.6 475.5 606.3 490.3 626C502.2 642 521.5 650.7 541.4 652.9C551.7 654 562 653.5 571.8 652C582.5 650.3 593.1 647.4 603.3 644C621.5 637.8 638.8 629.7 656 622.2C676.2 613.3 696.1 605.3 716.5 599.8C754.3 589.6 796.9 588.4 832.6 609.9C848 619.1 861.1 632.3 871.7 647.3C875.8 653.1 879.5 659.2 882.8 665.4C918.8 733.3 909.2 823.6 859.4 881.4" stroke="#C3AAC6" stroke-width="2" stroke-miterlimit="10"/>
<path d="M-12.4999 -136.2C42.2001 -140.4 97 -139.8 149.5 -127C199.9 -114.5 250.5 -88 285.9 -48.8C312.1 -19.6 329.6 15.7 333.5 56.7C336.9 92.6 329.2 129.1 312.4 159.7C299.5 182.9 282 202.5 263.9 221.9C256.3 230 248.5 238.3 240.8 246.7C230.6 257.9 220.5 270.1 212.5 284C200 305.7 188.7 337.9 200.6 361.7C212.4 385.1 240.8 397.5 265.6 401.1C281.1 403.3 296.6 402.8 311.3 401.9C323.9 401.2 336.1 400.4 347.8 400.3C374 399.9 398.7 402.5 420.7 414.7C425 417.1 429.3 419.8 433.3 423.1C453.6 439.7 466.1 463.2 469.7 489.4C472.3 508.5 471.2 528.7 471.4 549.3C471.4 550.1 471.4 550.8 471.4 551.6C471.7 575.6 472.1 603.5 486.9 623.4C499.1 639.6 518.6 648.6 538.9 650.7C549.3 651.8 559.8 651.2 569.8 649.5C580.7 647.7 591.4 644.6 601.7 640.9C620.1 634.3 637.6 625.8 654.9 617.7C675.3 608.2 695.3 599.3 716 592.9C754.3 581.2 797.9 578.4 834.6 599.7C850.4 608.8 863.9 622.1 874.8 637.3C879 643.2 882.8 649.3 886.2 655.6C923.2 724.4 913.3 816.5 862.2 875" stroke="#C8ADC2" stroke-width="2" stroke-miterlimit="10"/>
<path d="M-21.4 -132.2C33.9 -136.8 89.3 -137.1 142.6 -125C193.8 -113.2 245.5 -87.1 281.6 -47.8C308.3 -18.6 326.2 17 329.9 58.6C333.2 94.9 324.8 131.8 307 162.4C293.4 185.7 275 204.9 256.1 224.1C248.1 232.1 240.1 240.3 232.1 248.7C221.5 259.8 211.1 272 202.9 285.9C190.1 307.5 178.2 340.3 190.1 364.3C201.9 387.9 230.6 400.5 255.4 403.9C271 406 286.5 405.3 301.4 404.1C314.1 403.1 326.4 402 338.2 401.4C364.6 400.1 389.9 401.5 412.8 412.7C417.3 414.9 421.8 417.5 426 420.6C447.2 436.4 461.2 459.8 465.6 486.1C468.8 505.3 468.1 525.6 468.4 546.4C468.4 547.2 468.4 547.9 468.4 548.7C468.8 572.8 468.9 601 483.9 621C496.3 637.5 516.2 646.6 536.8 648.7C547.4 649.8 558 649.1 568.2 647.3C579.3 645.4 590.1 642.1 600.6 638.2C619.3 631.2 636.9 622.2 654.3 613.5C674.8 603.3 695 593.5 716 586.4C754.8 573.1 799.4 568.8 837.2 589.8C853.4 598.8 867.3 612.2 878.5 627.6C882.8 633.5 886.7 639.8 890.2 646.2C928.2 716 918 809.9 865.6 868.9" stroke="#CCAFBE" stroke-width="2" stroke-miterlimit="10"/>
<path d="M-30.2999 -128.1C25.5001 -133.1 81.5001 -134.4 135.6 -123C187.5 -112 240.3 -86.3 277.2 -46.9C304.4 -17.7 322.7 18.2 326.1 60.5C329.2 97.2 320.1 134.5 301.4 165.1C287.1 188.4 267.7 207.4 248.1 226.3C239.8 234.3 231.4 242.3 223.2 250.7C212.2 261.8 201.5 274 193 287.9C179.8 309.4 167.3 342.7 179.2 367C190.9 390.7 220 403.6 244.9 406.8C260.5 408.8 276.2 407.9 291.2 406.4C303.9 405.1 316.3 403.7 328.3 402.7C355 400.5 380.8 400.6 404.5 410.9C409.2 412.9 413.8 415.4 418.2 418.3C440.3 433.3 455.8 456.6 461 483C464.8 502.3 464.5 522.8 464.9 543.7C464.9 544.5 464.9 545.2 465 546C465.5 570.2 465.4 598.7 480.4 618.7C493 635.5 513.2 644.8 534.1 646.8C544.9 647.8 555.6 647.1 566 645.1C577.2 643 588.2 639.5 598.8 635.4C617.7 628 635.5 618.5 653.1 609.3C673.8 598.4 694.1 587.8 715.4 579.8C754.6 565 800.4 559.2 839.2 579.9C855.9 588.8 870.1 602.3 881.6 617.9C886 623.9 890 630.2 893.6 636.7C932.6 707.4 922.1 803.2 868.4 862.8" stroke="#D1B2B9" stroke-width="2" stroke-miterlimit="10"/>
<path d="M-39.2 -124.1C17.2001 -129.5 73.8 -131.7 128.7 -121C181.3 -110.7 235.3 -85.4 272.9 -46C300.6 -16.9 319.3 19.3 322.5 62.3C325.4 99.5 315.7 137.1 296 167.7C280.9 191 260.7 209.7 240.3 228.4C231.7 236.3 223 244.2 214.5 252.5C203.1 263.6 192.1 275.7 183.3 289.6C169.7 311 156.7 344.8 168.6 369.3C180.2 393.1 209.7 406.3 234.6 409.4C250.3 411.3 266.1 410.2 281.2 408.4C294 406.9 306.5 405.1 318.6 403.6C345.5 400.4 371.9 399.3 396.4 408.7C401.2 410.6 406.1 412.8 410.7 415.7C433.7 429.9 450.7 453.1 456.7 479.6C461.1 499 461.2 519.7 461.7 540.7C461.7 541.5 461.7 542.2 461.8 543C462.5 567.3 462 596 477.2 616.2C490.1 633.3 510.5 642.8 531.8 644.7C542.7 645.7 553.7 644.8 564.2 642.7C575.6 640.5 586.7 636.8 597.4 632.5C616.5 624.7 634.5 614.8 652.2 604.9C673.1 593.3 693.6 581.8 715 573C754.7 556.6 801.5 549.3 841.3 569.8C858.4 578.6 873 592.2 884.8 608C889.3 614.1 893.4 620.5 897.1 627.1C937.1 698.8 926.2 796.3 871.3 856.6" stroke="#D6B5B5" stroke-width="2" stroke-miterlimit="10"/>
<path d="M-48.1 -120C8.80003 -125.8 66.1 -128.9 121.8 -119C175.2 -109.4 230.3 -84.5 268.7 -45.1C297 -16 315.9 20.5 319 64.1C321.7 101.7 311.4 139.7 290.7 170.3C274.9 193.6 253.8 212.1 232.7 230.5C223.8 238.3 214.8 246.1 206 254.4C194.2 265.5 182.9 277.5 173.8 291.5C159.9 312.8 146.2 347.1 158.1 371.9C169.6 395.8 199.4 409.3 224.4 412.2C240.2 414 256 412.8 271.3 410.7C284.1 408.9 296.7 406.7 308.9 404.8C336.1 400.7 363 398.3 388.3 406.8C393.3 408.5 398.3 410.6 403.1 413.3C427 426.7 445.4 449.9 452.3 476.5C457.3 496 457.7 516.9 458.4 538C458.4 538.8 458.5 539.5 458.5 540.3C459.3 564.7 458.6 593.7 473.9 613.9C487 631.2 507.8 640.9 529.4 642.8C540.5 643.8 551.6 642.8 562.3 640.6C573.9 638.2 585.2 634.4 596 629.8C615.4 621.6 633.5 611.2 651.4 600.7C672.4 588.4 693.1 576.1 714.8 566.4C755 548.4 802.8 539.6 843.7 559.9C861.3 568.6 876.2 582.3 888.3 598.3C892.9 604.4 897.1 610.9 900.9 617.6C941.9 690.3 930.7 789.6 874.5 850.4" stroke="#DBB8B1" stroke-width="2" stroke-miterlimit="10"/>
<path d="M-57 -115.9C0.5 -122.1 58.3 -126.1 114.9 -116.9C169 -108 225.3 -83.5 264.4 -44.1C293.2 -15 312.5 21.8 315.4 66C317.9 104 306.9 142.4 285.3 172.9C268.8 196.2 246.8 214.4 224.9 232.6C215.6 240.3 206.3 248.1 197.3 256.2C185.1 267.2 173.5 279.2 164.1 293.2C149.8 314.4 135.5 349.2 147.4 374.3C158.9 398.3 189 412 214.1 414.8C230 416.5 245.9 415.1 261.3 412.7C274.2 410.7 286.9 408.1 299.2 405.8C326.6 400.7 354.1 397.1 380.3 404.7C385.5 406.2 390.7 408.2 395.7 410.7C420.5 423.3 440.5 446.4 448.1 473.1C453.8 492.7 454.5 513.8 455.3 535C455.3 535.8 455.4 536.6 455.4 537.3C456.3 561.9 455.4 591 470.7 611.4C484 629 505.1 638.9 527.1 640.7C538.4 641.6 549.6 640.6 560.6 638.2C572.3 635.7 583.8 631.7 594.7 626.9C614.3 618.3 632.6 607.4 650.6 596.4C671.8 583.4 692.6 570.3 714.6 559.7C755.3 540.2 804.1 529.8 846 549.9C864 558.5 879.3 572.3 891.7 588.5C896.4 594.7 900.7 601.3 904.6 608C946.6 681.6 935.1 782.8 877.6 844.2" stroke="#DFBBAC" stroke-width="2" stroke-miterlimit="10"/>
<path d="M-65.7999 -111.9C-7.79993 -118.5 50.7001 -123.4 108.1 -115C163 -106.9 220.3 -82.8 260.2 -43.2C289.5 -14.1 309.2 23 311.9 67.8C314.2 106.2 302.6 145 280.1 175.5C262.9 198.8 240 216.8 217.3 234.7C207.7 242.3 198.1 250 188.8 258.1C176.2 269.1 164.3 281.1 154.6 295C140 316.1 125.1 351.4 137 376.8C148.4 400.9 178.9 414.9 204 417.5C220 419.2 235.9 417.5 251.5 414.8C264.5 412.5 277.2 409.6 289.7 406.8C317.4 400.8 345.4 395.9 372.4 402.6C377.8 403.9 383.1 405.8 388.3 408.2C414 420 435.4 443 443.9 469.8C450.2 489.5 451.3 510.8 452.2 532C452.2 532.8 452.3 533.6 452.3 534.3C453.4 559 452.1 588.4 467.6 608.9C481.1 626.8 502.6 636.8 524.8 638.5C536.3 639.4 547.7 638.3 558.8 635.8C570.7 633.1 582.3 628.9 593.4 623.9C613.2 615 631.7 603.6 649.8 591.9C671.2 578.2 692.1 564.2 714.4 552.8C755.5 531.7 805.5 519.8 848.4 539.6C866.8 548.1 882.5 562 895.2 578.3C900.1 584.6 904.5 591.2 908.4 598.1C951.4 672.7 939.6 775.7 880.8 837.6" stroke="#E4BEA8" stroke-width="2" stroke-miterlimit="10"/>
<path d="M-74.7 -107.8C-16.1 -114.7 42.9 -120.6 101.2 -112.9C156.8 -105.5 215.3 -81.8 255.9 -42.2C285.7 -13.1 305.8 24.2 308.2 69.8C310.3 108.6 298.1 147.8 274.6 178.3C256.6 201.6 232.9 219.3 209.4 237C199.5 244.5 189.5 252.1 180 260.1C167 271 154.8 283 144.8 297C129.9 318.1 114.3 353.9 126.2 379.5C137.5 403.7 168.4 418 193.5 420.5C209.6 422.1 225.6 420.3 241.3 417.2C254.3 414.7 267.2 411.3 279.8 408.2C307.7 401.2 336.3 395.1 364.1 400.9C369.6 402 375.2 403.7 380.6 406C407.2 417.1 430.1 439.9 439.4 466.8C446.3 486.6 447.8 508.1 448.8 529.4C448.8 530.2 448.9 531 448.9 531.8C450.1 556.6 448.6 586.2 464.2 606.8C478 625 499.7 635.2 522.3 636.8C533.9 637.6 545.5 636.4 556.8 633.8C568.9 631 580.6 626.6 591.8 621.4C611.8 612.1 630.4 600.2 648.8 588C670.3 573.6 691.4 558.8 713.9 546.6C755.5 524 806.5 510.6 850.5 530.1C869.4 538.5 885.4 552.5 898.4 569C903.4 575.3 907.9 582.1 911.9 589C955.9 664.6 943.8 769.3 883.7 831.9" stroke="#E9C0A4" stroke-width="2" stroke-miterlimit="10"/>
<path d="M-83.6 -103.8C-24.5 -111.1 35.2 -117.9 94.3 -111C150.7 -104.3 210.3 -81 251.6 -41.4C281.9 -12.4 302.3 25.3 304.6 71.5C306.5 110.7 293.6 150.3 269.2 180.8C250.5 204.1 225.8 221.6 201.6 239C191.4 246.4 181.1 253.9 171.3 261.9C157.9 272.8 145.4 284.7 135.2 298.7C119.9 319.6 103.8 356 115.7 381.9C126.9 406.3 158.2 420.8 183.4 423.1C199.6 424.6 215.7 422.6 231.5 419.2C244.6 416.4 257.5 412.7 270.2 409.1C298.4 401.2 327.5 393.8 356.2 398.7C361.9 399.7 367.6 401.2 373.2 403.3C400.7 413.7 425.1 436.3 435.2 463.3C442.7 483.2 444.5 504.8 445.8 526.3C445.8 527.1 445.9 527.9 445.9 528.7C447.3 553.6 445.4 583.5 461.1 604.2C475.1 622.7 497.1 633 520.1 634.6C531.9 635.4 543.6 634.1 555.1 631.3C567.3 628.4 579.2 623.8 590.6 618.3C610.9 608.6 629.6 596.2 648.1 583.4C669.8 568.3 691.1 552.7 713.8 539.6C755.9 515.4 807.9 500.5 852.9 519.8C872.2 528.1 888.6 542.2 901.9 558.9C907 565.3 911.6 572.1 915.7 579.1C960.7 655.6 948.3 762.2 886.9 825.4" stroke="#EDC39F" stroke-width="2" stroke-miterlimit="10"/>
<path d="M-92.5 -99.7C-32.8 -107.4 27.5 -115.1 87.4 -108.9C186.3 -98.6 296.1 -37.3 301 73.4C302.7 113 289.2 153 263.8 183.4C244.4 206.7 218.8 223.9 193.9 241.1C168.9 258.3 143.8 276.3 125.5 300.5C109.8 321.3 93.1 358.2 105 384.3C116.2 408.8 147.8 423.6 173 425.7C202.7 428.3 231.9 419 260.4 410.1C288.9 401.2 318.4 392.6 348 396.6C382.8 401.3 417.6 427.3 430.8 460C439.2 480.7 441.3 503.4 442.6 525.8C444.1 550.8 442 581 457.8 601.7C472 620.4 494.4 631 517.7 632.5C542.4 634.1 566.9 626.4 589.1 615.5C633.7 593.5 670.8 558.7 713.4 533C756 507.3 809 490.8 855.1 509.9C882.4 521.2 904.1 544 919.3 569.7C965.3 647.2 952.6 755.6 889.9 819.3" stroke="#F2C69B" stroke-width="2" stroke-miterlimit="10"/>
</g>
</svg>
